<?xml version="1.0" encoding="UTF-8" standalone="no"?><!DOCTYPE svg PUBLIC "-//W3C//DTD SVG 1.1//EN" "http://www.w3.org/Graphics/SVG/1.1/DTD/svg11.dtd"><svg width="100%" height="100%" viewBox="0 0 1920 1920" version="1.1" xmlns="http://www.w3.org/2000/svg" xmlns:xlink="http://www.w3.org/1999/xlink" xml:space="preserve" xmlns:serif="http://www.serif.com/" style="fill-rule:evenodd;clip-rule:evenodd;stroke-linecap:round;stroke-linejoin:round;stroke-miterlimit:1.5;"><path id="Back-hair-left" serif:id="Back hair left" d="M309.942,1276.55l-20.903,40.644c-0,0 22.18,285.53 26.82,315.042c2.911,18.51 11.649,94.303 22.092,163.54c3.564,23.636 9.825,97.563 25.409,124.227c12.035,20.592 159.092,79.112 159.092,79.112l113.804,-50.195c-0,-0 3.484,-111.481 6.967,-163.738c3.484,-52.257 8.129,-173.028 8.129,-173.028l30.193,-239.219l-371.603,-96.385Z" style="fill:#1b3d3e;"/><clipPath id="_clip1"><path d="M309.942,1276.55l-20.903,40.644c-0,0 22.18,285.53 26.82,315.042c2.911,18.51 11.649,94.303 22.092,163.54c3.564,23.636 9.825,97.563 25.409,124.227c12.035,20.592 159.092,79.112 159.092,79.112l113.804,-50.195c-0,-0 3.484,-111.481 6.967,-163.738c3.484,-52.257 8.129,-173.028 8.129,-173.028l30.193,-239.219l-371.603,-96.385Z"/></clipPath><g clip-path="url(#_clip1)"><g><g style="filter:url(#_Effect2);"><path d="M286.069,1519.14c0,-0 90.149,175.797 113.748,217.198c35.542,62.353 120.253,102.462 136.859,110.105c0.831,0.383 -4.134,74.443 -3.126,73.561c1.319,-1.155 3.126,-73.561 3.126,-73.561l2.548,-127.567c-0,0 28.71,91.214 33.676,110.32c20.231,77.827 77.805,124.255 77.805,124.255l135.867,-525.193l-541.147,-234.271l-51.496,250.832l92.14,74.321Z" style="fill:#11282a;stroke:#11282a;stroke-width:3.53px;"/></g></g><g><g style="filter:url(#_Effect3);"><path d="M403.156,1873.09c0,-0 4.645,32.516 9.291,46.915" style="fill:none;stroke:#11282a;stroke-width:3.53px;"/></g></g><g><g style="filter:url(#_Effect4);"><path d="M289.039,1315.95l90.552,112.3l54.2,50.199l79.538,11.57l59.679,67.522l76.216,58.96" style="fill:none;stroke:#fff;stroke-width:3.53px;"/></g></g></g><path d="M309.942,1276.55l-20.903,40.644c-0,0 22.18,285.53 26.82,315.042c2.911,18.51 11.649,94.303 22.092,163.54c3.564,23.636 9.825,97.563 25.409,124.227c12.035,20.592 159.092,79.112 159.092,79.112l113.804,-50.195c-0,-0 3.484,-111.481 6.967,-163.738c3.484,-52.257 8.129,-173.028 8.129,-173.028l30.193,-239.219l-371.603,-96.385Z" style="fill:none;stroke:#684937;stroke-width:3.53px;"/><g id="Neck"><g style="filter:url(#_Effect5);"><path id="Shirt" d="M628.076,1920c-0,0 36.152,-36.451 53.543,-59.193c17.391,-22.742 45.23,-50.428 58.089,-52.181c12.859,-1.753 225.467,4.676 225.467,4.676c-0,-0 238.027,-1.104 245.918,2.37c7.89,3.475 38.466,32.388 49.096,48.79c6.182,9.539 59.909,42.357 59.909,42.357l5.261,43.836l-705.762,-15.781l8.479,-14.874Z" style="fill:#7c8195;"/><clipPath id="_clip6"><path d="M628.076,1920c-0,0 36.152,-36.451 53.543,-59.193c17.391,-22.742 45.23,-50.428 58.089,-52.181c12.859,-1.753 225.467,4.676 225.467,4.676c-0,-0 238.027,-1.104 245.918,2.37c7.89,3.475 38.466,32.388 49.096,48.79c6.182,9.539 59.909,42.357 59.909,42.357l5.261,43.836l-705.762,-15.781l8.479,-14.874Z"/></clipPath><g clip-path="url(#_clip6)"><path d="M723.836,1838.43c0,0 2.23,36.418 8.175,46.079c5.946,9.662 25.385,26.756 25.385,26.756l431.688,-17.837c-0,-0 5.945,-5.203 15.607,-20.81c9.662,-15.607 14.864,-15.607 14.864,-15.607" style="fill:none;stroke:#684937;stroke-width:3.53px;"/></g><path d="M628.076,1920c-0,0 36.152,-36.451 53.543,-59.193c17.391,-22.742 45.23,-50.428 58.089,-52.181c12.859,-1.753 225.467,4.676 225.467,4.676c-0,-0 238.027,-1.104 245.918,2.37c7.89,3.475 38.466,32.388 49.096,48.79c6.182,9.539 59.909,42.357 59.909,42.357l5.261,43.836l-705.762,-15.781l8.479,-14.874Z" style="fill:none;stroke:#684937;stroke-width:3.53px;"/></g><path d="M748.628,1648.62c-0,0 4.634,113.39 4.634,149.242c-0,30.373 -4.634,122.143 -4.634,122.143l105.684,79.112l341.132,-22.743l-22.743,-56.369l16.054,-26.572c-0,-0 -5.981,-57.818 -8.027,-89.631c-3.457,-53.772 5.351,-148.493 0,-165.884c-5.351,-17.391 -432.1,10.702 -432.1,10.702Z" style="fill:#ad7368;"/><clipPath id="_clip7"><path d="M748.628,1648.62c-0,0 4.634,113.39 4.634,149.242c-0,30.373 -4.634,122.143 -4.634,122.143l105.684,79.112l341.132,-22.743l-22.743,-56.369l16.054,-26.572c-0,-0 -5.981,-57.818 -8.027,-89.631c-3.457,-53.772 5.351,-148.493 0,-165.884c-5.351,-17.391 -432.1,10.702 -432.1,10.702Z"/></clipPath><g clip-path="url(#_clip7)"><g opacity="0.28"><g style="filter:url(#_Effect8);"><path d="M748.094,1688.96c-2.567,-5.134 -0.483,-11.387 4.651,-13.954c5.134,-2.567 11.386,-0.482 13.953,4.651c3.043,6.086 6.41,6.732 9.453,7.588c1.778,0.5 3.507,1.049 5.184,1.797c3.66,1.633 7.186,4.035 10.266,8.768l48.037,24.019c50.024,25.012 95.259,38.102 105.988,39.077c58.695,5.336 57.318,-4.863 113.494,-23.588c22.935,-7.646 46.182,-24.759 100.332,-42.809c8.047,-2.682 14.908,-9.771 16.002,-10.866c4.059,-4.058 10.649,-4.058 14.708,0c4.058,4.059 4.058,10.65 -0,14.708c-1.635,1.635 -12.112,11.884 -24.132,15.89c-54.15,18.051 -77.397,35.164 -100.333,42.809c-60.287,20.096 -58.963,30.298 -121.954,24.571c-11.46,-1.042 -59.976,-14.473 -113.407,-41.188l-50.835,-25.418c-2.013,-1.006 -3.645,-2.638 -4.651,-4.651c-1.057,-2.114 -2.441,-2.551 -3.854,-2.96c-1.928,-0.558 -3.909,-1.066 -5.922,-1.844c-5.584,-2.157 -11.598,-5.837 -16.98,-16.6Z" style="fill:#fff;"/></g></g></g><path d="M748.628,1648.62c-0,0 4.634,113.39 4.634,149.242c-0,30.373 -4.634,122.143 -4.634,122.143l105.684,79.112l341.132,-22.743l-22.743,-56.369l16.054,-26.572c-0,-0 -5.981,-57.818 -8.027,-89.631c-3.457,-53.772 5.351,-148.493 0,-165.884c-5.351,-17.391 -432.1,10.702 -432.1,10.702Z" style="fill:none;stroke:#684937;stroke-width:3.53px;"/></g><path id="Back-hair-right" serif:id="Back hair right" d="M1257.8,1603.03c-0,0 4.439,138.063 5.707,170.187c1.269,32.124 6.977,191.308 6.977,191.308c-0,0 192.516,43.126 238.813,-5.073c46.296,-48.2 54.573,-70.915 64.335,-114.157c17.969,-79.592 36.534,-323.671 41.223,-380.521c5.974,-72.407 3.172,-194.066 3.172,-194.066l-281.586,144.598l-78.641,187.724Z" style="fill:#1b3d3e;"/><clipPath id="_clip9"><path d="M1257.8,1603.03c-0,0 4.439,138.063 5.707,170.187c1.269,32.124 6.977,191.308 6.977,191.308c-0,0 192.516,43.126 238.813,-5.073c46.296,-48.2 54.573,-70.915 64.335,-114.157c17.969,-79.592 36.534,-323.671 41.223,-380.521c5.974,-72.407 3.172,-194.066 3.172,-194.066l-281.586,144.598l-78.641,187.724Z"/></clipPath><g clip-path="url(#_clip9)"><g><g style="filter:url(#_Effect10);"><path d="M1330.15,1943.62c100.626,-93.477 157.072,-197.68 157.072,-197.68l-17.101,174.055l17.101,-174.055c0,0 57.407,-84.672 65.494,-100.37c21.492,-41.721 86.759,-152.111 86.759,-152.111l44.605,-292.828l-350.396,89.581l-137.939,151.415l25.368,372.594l12.684,131.597c-0,0 53.124,37.96 96.353,-2.198Z" style="fill:#11282a;stroke:#11282a;stroke-width:3.53px;"/></g></g><g><g style="filter:url(#_Effect11);"><path d="M1619.39,1325.59l-84.485,124.93l-79.092,39.505l-40.445,-0l-74.598,80.931l-81.789,63.813" style="fill:none;stroke:#fff;stroke-width:3.53px;"/></g></g></g><path d="M1257.8,1603.03c-0,0 4.439,138.063 5.707,170.187c1.269,32.124 6.977,191.308 6.977,191.308c-0,0 192.516,43.126 238.813,-5.073c46.296,-48.2 54.573,-70.915 64.335,-114.157c17.969,-79.592 36.534,-323.671 41.223,-380.521c5.974,-72.407 3.172,-194.066 3.172,-194.066l-281.586,144.598l-78.641,187.724Z" style="fill:none;stroke:#684937;stroke-width:3.53px;"/><g id="Ears"><path id="Right-Ear" serif:id="Right Ear" d="M1355.72,1489.91l63.591,0.11c-0,-0 51.512,1.62 70.604,-11.8c19.204,-13.497 43.85,-17.837 100.333,-108.508c56.484,-90.671 62.585,-96.485 71.957,-118.419c4.389,-10.274 1.237,-61.067 -0.609,-79.273c-1.36,-13.411 -9.342,-39.607 -16.148,-54.018c-0.813,-1.721 -9.931,-46.512 -45.631,-39.365c-68.904,13.794 -191.886,86.873 -230.195,95.764c-9.29,2.156 16.54,324.52 -13.902,315.509Z" style="fill:#e2c2af;"/><clipPath id="_clip12"><path id="Right-Ear1" serif:id="Right Ear" d="M1355.72,1489.91l63.591,0.11c-0,-0 51.512,1.62 70.604,-11.8c19.204,-13.497 43.85,-17.837 100.333,-108.508c56.484,-90.671 62.585,-96.485 71.957,-118.419c4.389,-10.274 1.237,-61.067 -0.609,-79.273c-1.36,-13.411 -9.342,-39.607 -16.148,-54.018c-0.813,-1.721 -9.931,-46.512 -45.631,-39.365c-68.904,13.794 -191.886,86.873 -230.195,95.764c-9.29,2.156 16.54,324.52 -13.902,315.509Z"/></clipPath><g clip-path="url(#_clip12)"><path d="M1474.25,1386.61l66.633,-4.506l24.665,-34.001l31.771,-38.508c0,0 4.896,-11.795 0,-20.999c-4.896,-9.203 -6.369,-18.775 -6.369,-18.775l-0.745,-32.768c0,0 4.242,-16.194 15.287,-20.612c11.044,-4.418 21.444,-9.363 21.444,-9.363l7.697,-16.037l-6.183,-37.319l-11.045,-14.394l-17.793,2.972l-17.492,11.762l-15.833,12.063l-15.569,74.716l-31.817,22.128l-42.985,11.88l-24.665,78.782l8.591,19.512l14.408,13.467Z" style="fill:#ac7473;"/><g><g style="filter:url(#_Effect13);"><g><path d="M1459.85,1386.1c-0,0 32.787,1.151 47.168,0c14.38,-1.15 35.41,-1.495 35.41,-1.495c0,-0 15.209,-26.691 23.262,-38.195c8.053,-11.504 31.637,-36.814 31.637,-36.814" style="fill:none;stroke:#38271e;stroke-width:3.53px;"/><path d="M1589.27,1267.03c-0,-0 3.451,-43.142 -2.876,-52.345c-6.328,-9.204 -30.487,-7.478 -30.487,-7.478" style="fill:none;stroke:#38271e;stroke-width:3.53px;"/><path d="M1528.58,1318.23c0,0 31.35,-9.203 27.323,-31.637c-4.026,-22.433 -20.708,-37.389 -20.708,-37.389" style="fill:none;stroke:#38271e;stroke-width:3.53px;"/><path d="M1637.24,1242.76c0,-0 0,-103.195 -20.938,-103.425c-26.483,-0.291 -43.247,24.159 -43.247,24.159c0,0 5.436,23.584 17.151,31.637c11.716,8.054 32.999,11.952 32.999,11.952" style="fill:none;stroke:#38271e;stroke-width:3.53px;"/></g></g></g></g><path id="Right-Ear2" serif:id="Right Ear" d="M1355.72,1489.91l63.591,0.11c-0,-0 51.512,1.62 70.604,-11.8c19.204,-13.497 43.85,-17.837 100.333,-108.508c56.484,-90.671 62.585,-96.485 71.957,-118.419c4.389,-10.274 1.237,-61.067 -0.609,-79.273c-1.36,-13.411 -9.342,-39.607 -16.148,-54.018c-0.813,-1.721 -9.931,-46.512 -45.631,-39.365c-68.904,13.794 -191.886,86.873 -230.195,95.764c-9.29,2.156 16.54,324.52 -13.902,315.509Z" style="fill:none;stroke:#684937;stroke-width:3.53px;"/><path id="Left-ear" serif:id="Left ear" d="M524.648,1489.99c0,-0 -66.972,1.142 -86.759,-9.513c-20.816,-11.208 -78.007,-67.352 -97.033,-101.599c-7.245,-13.041 -64.316,-75.692 -72.299,-104.644c-15.656,-56.778 1.141,-150.687 1.141,-150.687l13.963,-28.541c133.558,1.184 214.877,35.26 307.198,62.408l14.84,262.56l-81.051,70.016Z" style="fill:#e2c2af;"/><clipPath id="_clip14"><path id="Left-ear1" serif:id="Left ear" d="M524.648,1489.99c0,-0 -66.972,1.142 -86.759,-9.513c-20.816,-11.208 -78.007,-67.352 -97.033,-101.599c-7.245,-13.041 -64.316,-75.692 -72.299,-104.644c-15.656,-56.778 1.141,-150.687 1.141,-150.687l13.963,-28.541c133.558,1.184 214.877,35.26 307.198,62.408l14.84,262.56l-81.051,70.016Z"/></clipPath><g clip-path="url(#_clip14)"><g><g style="filter:url(#_Effect15);"><g><path d="M319.814,1200.64c-6.83,30.053 2.172,31.075 17.882,47.127c15.71,16.051 11.953,24.931 15.71,35.176c3.756,10.246 25.198,13.661 27.588,30.054c2.391,16.393 54.718,22.541 61.207,4.099c6.489,-18.442 83.331,-84.356 21.174,-96.651c-62.156,-12.295 -80.599,-12.978 -105.871,-27.663c-25.273,-14.685 -30.859,-22.196 -37.69,7.858Z" style="fill:#ac7473;stroke:#ac7473;stroke-width:3.53px;"/><path d="M286.468,1261.77c-0,0 -4.099,-49.862 -2.391,-61.815c1.707,-11.953 14.002,-45.422 27.322,-38.25c13.319,7.171 43.803,27.657 44.397,37.567c1.025,17.076 -2.049,42.69 -22.882,37.226c-20.832,-5.465 -27.663,-7.172 -27.663,-7.172" style="fill:none;"/><clipPath id="_clip16"><path d="M286.468,1261.77c-0,0 -4.099,-49.862 -2.391,-61.815c1.707,-11.953 14.002,-45.422 27.322,-38.25c13.319,7.171 43.803,27.657 44.397,37.567c1.025,17.076 -2.049,42.69 -22.882,37.226c-20.832,-5.465 -27.663,-7.172 -27.663,-7.172"/></clipPath><g clip-path="url(#_clip16)"><path d="M282.028,1213.95c-0,0 39.958,17.759 55.668,33.811c15.71,16.051 11.953,24.931 15.71,35.176c3.756,10.246 -23.565,20.492 -21.175,36.885c2.391,16.393 18.101,31.761 27.664,50.886c9.562,19.126 11.27,21.858 19.125,25.956c7.855,4.098 90.844,13.319 97.333,-5.123c6.489,-18.442 4.098,-28.688 3.415,-13.319c-0.683,15.368 34.152,-50.204 8.538,-71.72c-25.614,-21.515 37.226,-73.768 -24.931,-86.063c-62.156,-12.295 -80.599,-12.978 -105.871,-27.663c-25.273,-14.685 -27.663,-37.909 -42.349,-31.761c-14.685,6.147 -14.002,-26.298 -24.589,-5.123c-10.587,21.174 -9.904,-2.049 -16.735,28.004c-6.83,30.054 -17.417,26.297 -0.341,33.128c17.076,6.83 -21.516,16.734 -2.732,6.489c18.783,-10.246 11.27,-9.563 11.27,-9.563Z" style="fill:#ac7473;stroke:#ac7473;stroke-width:3.53px;"/></g><path d="M286.468,1261.77c-0,0 -4.099,-49.862 -2.391,-61.815c1.707,-11.953 14.002,-45.422 27.322,-38.25c13.319,7.171 43.803,27.657 44.397,37.567c1.025,17.076 -2.049,42.69 -22.882,37.226c-20.832,-5.465 -27.663,-7.172 -27.663,-7.172" style="fill:none;stroke:#38271e;stroke-width:3.53px;"/><path d="M319.814,1305.48c0,-0 23.004,41.665 29.835,50.545c6.83,8.88 8.879,28.005 27.663,37.909c18.784,9.904 91.528,-0.342 91.528,-0.342l56.351,-74.451l-96.992,-2.732c-0,-0 -45.764,-17.418 -50.545,-28.347c-4.782,-10.928 11.27,-53.277 11.27,-53.277l-11.679,26.98c-0,0 -25.063,9.904 -32.306,29.371c-7.243,19.467 -10.533,40.174 -10.533,40.174" style="fill:none;"/><clipPath id="_clip17"><path d="M319.814,1305.48c0,-0 23.004,41.665 29.835,50.545c6.83,8.88 8.879,28.005 27.663,37.909c18.784,9.904 91.528,-0.342 91.528,-0.342l56.351,-74.451l-96.992,-2.732c-0,-0 -45.764,-17.418 -50.545,-28.347c-4.782,-10.928 11.27,-53.277 11.27,-53.277l-11.679,26.98c-0,0 -25.063,9.904 -32.306,29.371c-7.243,19.467 -10.533,40.174 -10.533,40.174"/></clipPath><g clip-path="url(#_clip17)"><path d="M282.028,1213.95c-0,0 39.958,17.759 55.668,33.811c15.71,16.051 11.953,24.931 15.71,35.176c3.756,10.246 -23.565,20.492 -21.175,36.885c2.391,16.393 18.101,31.761 27.664,50.886c9.562,19.126 11.27,21.858 19.125,25.956c7.855,4.098 90.844,13.319 97.333,-5.123c6.489,-18.442 4.098,-28.688 3.415,-13.319c-0.683,15.368 34.152,-50.204 8.538,-71.72c-25.614,-21.515 37.226,-73.768 -24.931,-86.063c-62.156,-12.295 -80.599,-12.978 -105.871,-27.663c-25.273,-14.685 -27.663,-37.909 -42.349,-31.761c-14.685,6.147 -14.002,-26.298 -24.589,-5.123c-10.587,21.174 -9.904,-2.049 -16.735,28.004c-6.83,30.054 -17.417,26.297 -0.341,33.128c17.076,6.83 -21.516,16.734 -2.732,6.489c18.783,-10.246 11.27,-9.563 11.27,-9.563Z" style="fill:#ac7473;stroke:#ac7473;stroke-width:3.53px;"/></g><path d="M319.814,1305.48c0,-0 23.004,41.665 29.835,50.545c6.83,8.88 8.879,28.005 27.663,37.909c18.784,9.904 91.528,-0.342 91.528,-0.342l56.351,-74.451l-96.992,-2.732c-0,-0 -45.764,-17.418 -50.545,-28.347c-4.782,-10.928 11.27,-53.277 11.27,-53.277l-11.679,26.98c-0,0 -25.063,9.904 -32.306,29.371c-7.243,19.467 -10.533,40.174 -10.533,40.174" style="fill:none;stroke:#3a291f;stroke-width:3.53px;"/></g></g></g></g><path id="Left-ear2" serif:id="Left ear" d="M524.648,1489.99c0,-0 -66.972,1.142 -86.759,-9.513c-20.816,-11.208 -78.007,-67.352 -97.033,-101.599c-7.245,-13.041 -64.316,-75.692 -72.299,-104.644c-15.656,-56.778 1.141,-150.687 1.141,-150.687l13.963,-28.541c133.558,1.184 214.877,35.26 307.198,62.408l14.84,262.56l-81.051,70.016Z" style="fill:none;stroke:#684937;stroke-width:3.53px;"/></g><path id="Face" d="M417.788,1268.79l82.895,192.049c0,-0 14.524,60.952 132.177,145.984c117.652,85.033 276.429,150.5 276.429,150.5c-0,-0 45.15,29.347 95.567,8.277c50.417,-21.07 216.649,-92.804 254.861,-129.547c38.213,-36.743 126.396,-80.506 186.655,-207.801c60.258,-127.295 70.666,-149.308 70.666,-149.308l48.16,-188.425l84.882,-74.077l1.702,-210.188l-51.734,-228.101l-123.456,-124.632l-208.113,-96.414l-229.276,-98.765l-161.081,16.461l-282.187,77.601l-112.874,63.492l-107.756,239.858l-30.366,126.256l-0,167.688l30.366,120.987l-0,71.088l20.748,73.651l21.735,53.366Z" style="fill:#f7d2bf;"/><clipPath id="_clip18"><path d="M417.788,1268.79l82.895,192.049c0,-0 14.524,60.952 132.177,145.984c117.652,85.033 276.429,150.5 276.429,150.5c-0,-0 45.15,29.347 95.567,8.277c50.417,-21.07 216.649,-92.804 254.861,-129.547c38.213,-36.743 126.396,-80.506 186.655,-207.801c60.258,-127.295 70.666,-149.308 70.666,-149.308l48.16,-188.425l84.882,-74.077l1.702,-210.188l-51.734,-228.101l-123.456,-124.632l-208.113,-96.414l-229.276,-98.765l-161.081,16.461l-282.187,77.601l-112.874,63.492l-107.756,239.858l-30.366,126.256l-0,167.688l30.366,120.987l-0,71.088l20.748,73.651l21.735,53.366Z"/></clipPath><g clip-path="url(#_clip18)"><g opacity="0.1"><g style="filter:url(#_Effect19);"><g id="Sommersprossen"><path d="M896.089,1142.58c4.416,-0 8,3.585 8,8c0,4.415 -3.584,8 -8,8l-0.752,-0c-4.416,-0 -8,-3.585 -8,-8c-0,-4.415 3.584,-8 8,-8l0.752,-0Z" style="fill:#916a59;"/><path d="M876.999,1150.58c0,4.415 -3.584,8 -8,8c-4.415,-0 -8,-3.585 -8,-8l0,-0.753c0,-4.415 3.585,-8 8,-8c4.416,0 8,3.585 8,8l0,0.753Z" style="fill:#916a59;"/><path d="M1029.1,1158.48c-3.949,1.974 -8.758,0.371 -10.733,-3.578c-1.974,-3.949 -0.371,-8.758 3.578,-10.733l1.505,-0.753c3.949,-1.974 8.758,-0.371 10.733,3.578c1.975,3.949 0.371,8.759 -3.578,10.733l-1.505,0.753Z" style="fill:#916a59;"/><path d="M1052.13,1161.11c0,-4.416 3.585,-8 8,-8c4.416,-0 8,3.584 8,8l0,1.505c0,4.415 -3.584,8 -8,8c-4.415,-0 -8,-3.585 -8,-8l0,-1.505Z" style="fill:#916a59;"/><path d="M999.181,1136c-4.415,-0 -8,-3.585 -8,-8c0,-4.415 3.585,-8 8,-8l0.753,-0c4.415,-0 8,3.585 8,8c-0,4.415 -3.585,8 -8,8l-0.753,-0Z" style="fill:#916a59;"/><path d="M1032.29,1124.71c-4.415,-0 -8,-3.585 -8,-8c0,-4.416 3.585,-8 8,-8l5.267,-0c4.416,-0 8,3.584 8,8c0,4.415 -3.584,8 -8,8l-5.267,-0Z" style="fill:#916a59;"/><path d="M1011.79,1086.98c3.949,1.975 5.552,6.784 3.578,10.733c-1.975,3.95 -6.784,5.553 -10.734,3.578l-1.505,-0.752c-3.949,-1.975 -5.552,-6.784 -3.577,-10.734c1.974,-3.949 6.784,-5.552 10.733,-3.577l1.505,0.752Z" style="fill:#916a59;"/><path d="M969.649,1095.27c-3.949,1.975 -8.758,0.372 -10.733,-3.578c-1.975,-3.949 -0.372,-8.758 3.578,-10.733l1.505,-0.752c3.949,-1.975 8.758,-0.372 10.733,3.577c1.974,3.95 0.371,8.759 -3.578,10.734l-1.505,0.752Z" style="fill:#916a59;"/><path d="M938.62,1100.66c-0.008,0.002 -0.015,0.004 -0.023,0.005c0.008,-0.001 0.017,-0.003 0.025,-0.005l2.587,-0.154c-0.504,-0.056 -0.95,-0.065 -1.356,-0.04c2.253,-0.178 4.568,0.594 6.29,2.316c3.122,3.122 3.122,8.192 0,11.314l-2.942,1.879l-1.249,0.302c-0.05,0.023 -0.1,0.047 -0.145,0.07c-3.949,1.975 -8.759,0.371 -10.733,-3.578c-1.975,-3.949 -0.372,-8.758 3.577,-10.733l3.567,-1.352l0.402,-0.024Zm-0,-0c0.376,-0.096 0.779,-0.167 1.233,-0.194c-0.414,0.032 -0.826,0.097 -1.231,0.194l-0.002,-0Zm1.053,15.751l-0.195,0.001c0.038,0.004 0.106,0.004 0.195,-0.001Zm-2.954,-15.031c-0.616,0.321 -1.246,0.759 -1.889,1.402c0.572,-0.572 1.21,-1.04 1.889,-1.402Z" style="fill:#916a59;"/><path d="M941.991,1119.25c4.416,0 8,3.585 8,8c0,4.416 -3.584,8 -8,8l-0.752,0c-4.415,0 -8,-3.584 -8,-8c-0,-4.415 3.585,-8 8,-8l0.752,0Z" style="fill:#916a59;"/><path d="M907.766,1108.05c3.122,3.122 3.122,8.191 0,11.313c-3.122,3.123 -8.192,3.123 -11.314,0l-0.752,-0.752c-3.122,-3.122 -3.122,-8.192 -0,-11.314c3.122,-3.122 8.191,-3.122 11.314,0l0.752,0.753Z" style="fill:#916a59;"/></g></g></g><g id="Nose"><g style="filter:url(#_Effect20);"><g><path d="M949.416,1160.04l-0.075,-2.559c-0.062,-2.144 0.725,-4.116 2.057,-5.593c-0.661,-3.94 1.718,-7.846 5.647,-8.995c4.237,-1.239 8.684,1.196 9.923,5.434c0.955,3.265 3.734,7.278 4.625,11.352c1.083,4.95 0.488,9.951 -3.687,14.71c-0.805,0.917 -1.485,1.662 -1.999,2.211l0.078,2.663c0.129,4.413 -3.349,8.101 -7.763,8.23c-3.844,0.112 -7.138,-2.512 -8.009,-6.108l-0.781,-1.534l-0.515,-2.225c-0.059,-0.539 -0.093,-1.365 -0.066,-2.432c0.074,-2.916 0.643,-9.121 0.565,-15.154Z" style="fill:#916a59;fill-opacity:0.43;"/><path d="M949.773,1163.43c0.147,-1.316 1.334,-2.266 2.651,-2.12c1.316,0.147 2.266,1.335 2.12,2.651c-1.104,9.921 -1.074,9.885 -0.383,19.823c0.092,1.321 -0.906,2.469 -2.228,2.56c-1.321,0.092 -2.469,-0.906 -2.561,-2.227c-0.721,-10.371 -0.751,-10.333 0.401,-20.687Z" style="fill:#916a59;"/></g></g></g><g id="Brows"><g style="filter:url(#_Effect21);"><g id="Low-Brow" serif:id="Low Brow"><path d="M684.489,776.852c-0,-0 80.087,19.887 139.749,78.474" style="fill:none;stroke:#916a59;stroke-width:3.53px;"/><path d="M1130.81,868.696c-0,0 77.265,-80.624 149.491,-83.984" style="fill:none;stroke:#916a59;stroke-width:3.53px;"/></g></g><g style="filter:url(#_Effect22);"><g id="Nike-brow" serif:id="Nike brow"><path d="M695.81,672.104c-0,-0 81.817,53.783 117.785,65.772c5.779,1.927 22.136,12.506 45.958,4.128c12.573,-4.421 11.283,-11.283 11.283,-11.283c0,0 -28.896,6.605 -42.931,2.752c-14.035,-3.853 -60.117,-17.578 -60.117,-17.578" style="fill:#916a59;stroke:#916a59;stroke-width:3.53px;"/><path d="M1238.93,675.406c0,0 -63.268,45.573 -98.967,55.425c-5.736,1.584 -22.28,11.182 -44.94,1.419c-11.959,-5.153 -10.291,-11.926 -10.291,-11.926c-0,-0 27.7,8.292 41.581,5.271c13.88,-3.021 64.03,-18.601 64.03,-18.601" style="fill:#916a59;stroke:#916a59;stroke-width:3.53px;"/></g></g><g style="filter:url(#_Effect23);"><g id="indent-brow" serif:id="indent brow"><path d="M793.745,741.484c0.587,0.139 1.162,0.369 1.705,0.695c2.139,1.283 2.753,1.783 2.975,2.001l0.275,0.012l1.886,0.598c0.626,0.269 1.308,0.634 2,1.069c1.467,0.922 3.627,2.678 4.27,3.207c17.632,8.851 16.721,10.497 28.835,26.65c0.902,1.202 1.935,3.522 2.572,6.54c1.142,5.405 1.296,13.414 -0.527,18.509c-1.072,2.997 -2.814,5.211 -4.911,6.508l-3.068,1.24l-3.313,0.158c-0.445,-0.05 -4.157,-0.475 -5.979,-0.874l-2.878,-1.129c-3.987,-2.658 -5.981,-4.655 -6.961,-5.887c-4.993,-2.874 -5.963,-5.777 -6.529,-8.234c-0.125,-0.546 -0.292,-1.516 -0.339,-1.793c-3.533,-7.089 -4.582,-10.53 -4.881,-11.769c-0.715,-1.344 -1.504,-3.312 -2.427,-5.831c-2.064,-5.636 -5.35,-14.73 -12.753,-25.095c-1.925,-2.694 -1.3,-6.445 1.395,-8.37c2.694,-1.924 6.445,-1.299 8.369,1.395c0.096,0.134 0.19,0.267 0.284,0.4Z" style="fill:#916a59;fill-opacity:0.21;"/><path d="M1115.99,771.545c-0.531,-1.346 -0.577,-2.879 -0.041,-4.308c-0.138,-1.258 0.119,-2.569 0.819,-3.736c1.1,-1.834 4.026,-5.039 6.955,-8.157c2.09,-2.225 4.254,-4.325 4.863,-5.544c1.211,-2.421 3.373,-3.895 4.559,-4.56l0.354,-0.752l1.349,-1.666c0.798,-0.781 1.941,-1.609 3.407,-2.375c6.361,-3.32 21.148,-6.233 27.961,-5.858c1.331,0.074 2.453,0.263 3.32,0.514l2.797,1.372l1.719,1.895l0.65,1.397l0.318,1.554c0.44,5.283 -0.779,8.243 -2.973,11.275c-1.994,2.756 -5.489,5.542 -9.336,13.235c-1.324,2.648 -11.914,14.59 -19.345,21.804c-3.322,3.225 -6.292,5.479 -7.847,6.335c0.302,-0.145 0.585,-0.284 0.585,-0.284c0,-0 -7.556,5.123 -12.071,5.687l-2.562,-0.022l-2.716,-0.916l-2.208,-1.81l-1.296,-2.089l-0.652,-2.132c-0.158,-0.825 -0.234,-1.737 -0.226,-2.696c0.021,-2.422 0.665,-5.292 0.934,-6.907c0.674,-4.048 0.414,-8.602 0.569,-10.614l0.114,-0.642Zm16.911,-25.787c-0.068,0.109 -0.125,0.228 -0.168,0.356l0.168,-0.356Zm11.179,4.234c0.003,-0.002 0.005,-0.003 0.008,-0.005c0.011,-0.027 0.021,-0.053 0.029,-0.078l-0.037,0.083Zm-16.558,35.066l-0.409,-0.094c-0.02,0.124 -0.042,0.265 -0.065,0.42c0.164,-0.111 0.322,-0.22 0.474,-0.326Z" style="fill:#916a59;fill-opacity:0.21;"/><path d="M836.21,793.591c0.864,1.728 0.163,3.832 -1.565,4.696c-1.728,0.864 -3.832,0.163 -4.696,-1.565c-1.307,-2.615 -10.428,-15.481 -11.287,-17.2c-1.516,-3.032 -10.715,-12.073 -11.707,-13.065c-1.366,-1.366 -1.366,-3.584 -0,-4.95c1.366,-1.366 3.584,-1.366 4.95,-0c1.118,1.119 11.309,11.467 13.018,14.885c0.859,1.718 9.98,14.585 11.287,17.199Z" style="fill:#916a59;"/><path d="M1133.3,777.135l0.048,-0.039c1.689,-1.43 6.989,-7.13 8.883,-10.917c0.864,-1.728 2.968,-2.429 4.695,-1.565c1.728,0.864 2.43,2.968 1.566,4.696c-1.753,3.504 -5.91,8.422 -8.632,11.224c-1.117,1.15 -2.089,1.973 -2.681,2.403c-0.161,0.327 -0.996,2.024 -1.664,3.4c-1.969,4.058 -5.283,9.547 -13.313,13.563c-1.728,0.864 -3.832,0.162 -4.696,-1.566c-0.864,-1.727 -0.163,-3.831 1.565,-4.695c7.226,-3.613 9.447,-8.823 10.902,-11.97c1.072,-2.318 2.205,-3.836 3.327,-4.534Z" style="fill:#916a59;"/></g></g></g><g id="Mouth"><g style="filter:url(#_Effect24);"><path d="M917.516,1436.25c-0,-0 18.52,19.492 47.898,19.492c29.377,-0 42.951,-14.776 42.951,-14.776l15.322,8.515c0,-0 -30.931,-15.03 -41.542,-30.308c-11.66,-16.786 -22.088,-35.671 -22.088,-35.671c0,-0 -11.899,22.752 -20.576,32.21c-8.521,9.288 -31.377,28.953 -31.377,28.953l9.412,-8.415Z" style="fill:#d49b94;stroke:#916a59;stroke-width:3.53px;"/></g></g><path id="Eye-Right" serif:id="Eye Right" d="M1524.55,915.863c-0,0 -62.126,-109.87 -201.042,-96.111c-138.916,13.759 -192.539,90.335 -197.851,121.461c-8.751,51.27 -15.771,46.656 3.595,110.19c20.476,67.175 46.299,82.578 46.299,82.578l146.719,24.927c0,0 56.538,7.263 117.642,-58.092c61.105,-65.354 80.069,-104.16 80.069,-104.16l4.569,-80.793Z" style="fill:none;"/><clipPath id="_clip25"><path d="M1524.55,915.863c-0,0 -62.126,-109.87 -201.042,-96.111c-138.916,13.759 -192.539,90.335 -197.851,121.461c-8.751,51.27 -15.771,46.656 3.595,110.19c20.476,67.175 46.299,82.578 46.299,82.578l146.719,24.927c0,0 56.538,7.263 117.642,-58.092c61.105,-65.354 80.069,-104.16 80.069,-104.16l4.569,-80.793Z"/></clipPath><g clip-path="url(#_clip25)"><path d="M1589.92,836.314c0,0 -492.555,-45.272 -494.464,-17.754c-1.91,27.517 21.414,354.967 21.414,354.967l418.182,27.109l54.868,-364.322Z" style="fill:#eadfdb;"/><g><g style="filter:url(#_Effect26);"><path d="M1475.96,1028.91l43.108,-22.021l20.885,35.83l39.284,-15.356l-1.492,-72.684l-21.88,-63.471l-56.688,-50.674l-44.754,-41.461l-140.229,-18.427l-151.169,-7.678l-54.699,38.39c0,-0 -383.607,449.917 -160.335,184.773c223.272,-265.144 134.182,12.257 228.662,-61.963c94.481,-74.22 141.866,-48.984 187.268,-36.306c93.801,26.195 112.039,131.048 112.039,131.048Z" style="fill:#ada2a6;"/></g></g><path d="M1153.62,928.557c-0,0 -37.223,116.448 -10.124,164.743c22.599,40.275 29.911,37.274 29.911,37.274l17.947,36.814l-115.964,4.141l-46.938,-173.485l142.043,-118.517l-16.875,49.03Z" style="fill:#f9d4c1;stroke:#f9d4c1;stroke-width:3.53px;"/><path id="Eye" d="M1292.38,886.135c-63.137,-6.101 -120.49,52.012 -127.997,129.693c-7.507,77.681 37.657,145.702 100.793,151.804c63.136,6.101 120.49,-52.012 127.997,-129.693c7.507,-77.681 -37.657,-145.702 -100.793,-151.804Z" style="fill:#fff9a5;"/><clipPath id="_clip27"><path d="M1292.38,886.135c-63.137,-6.101 -120.49,52.012 -127.997,129.693c-7.507,77.681 37.657,145.702 100.793,151.804c63.136,6.101 120.49,-52.012 127.997,-129.693c7.507,-77.681 -37.657,-145.702 -100.793,-151.804Z"/></clipPath><g clip-path="url(#_clip27)"><g><g style="filter:url(#_Effect28);"><path d="M993.439,739.603l-16.784,173.674c-2.84,29.383 18.71,55.543 48.092,58.382l173.845,16.8c29.382,2.84 55.542,-18.709 58.382,-48.092l16.784,-173.674c2.839,-29.383 -18.71,-55.543 -48.093,-58.382l-173.845,-16.801c-29.382,-2.839 -55.542,18.71 -58.381,48.093Z" style="fill:#513863;"/></g></g><g><g style="filter:url(#_Effect29);"><path d="M1300.99,1107.95l-17.977,186.025c-2.511,25.974 16.539,49.1 42.513,51.61l186.196,17.994c25.974,2.51 49.099,-16.54 51.61,-42.514l17.977,-186.025c2.51,-25.974 -16.539,-49.1 -42.513,-51.61l-186.196,-17.994c-25.974,-2.51 -49.1,16.54 -51.61,42.514Z" style="fill:#513863;"/></g></g><g><g style="filter:url(#_Effect30);"><path d="M950.519,1077.55l-18.402,190.424c-2.393,24.761 15.766,46.805 40.526,49.198l190.595,18.419c24.76,2.393 46.805,-15.766 49.197,-40.527l18.403,-190.424c2.393,-24.76 -15.767,-46.805 -40.527,-49.198l-190.594,-18.419c-24.76,-2.392 -46.805,15.767 -49.198,40.527Z" style="fill:#513863;"/></g></g><g><g style="filter:url(#_Effect31);"><path d="M1334.24,786.667l-14.078,145.677c-3.587,37.109 23.629,70.148 60.738,73.734l145.847,14.094c37.109,3.587 70.147,-23.629 73.733,-60.738l14.079,-145.677c3.586,-37.108 -23.63,-70.147 -60.738,-73.733l-145.848,-14.095c-37.108,-3.586 -70.147,23.63 -73.733,60.738Z" style="fill:#513863;"/></g></g></g><g><g style="filter:url(#_Effect32);"><path d="M1365.33,860.578c75.611,4.19 107.877,75.748 115.125,93.965c1.339,3.366 0.284,0.74 -0,-0c-0.014,4.022 1.701,12.833 0.423,30.289c-3.359,45.871 -14.533,77.554 -14.533,77.554l55.427,1.276l2.779,-44.891l17.922,-257.541l-149.179,-37.366l-320.24,2.56c0,-0 -298.856,569.701 1.975,187.779c300.83,-381.923 -30.083,112.219 67.75,18.856c97.833,-93.363 155.28,-76.21 222.551,-72.481Z" style="fill:#4f353e;"/></g></g><g><g style="filter:url(#_Effect33);"><path d="M1315.34,1173.92c-0.826,-0.319 -13.332,-5.118 -25.518,-8.18c-24.659,-6.195 -60.124,-12.653 -85.759,-13.701c-9.949,-0.406 -18.277,-0.109 -23.484,1.677c-4.176,1.433 -8.73,-0.794 -10.163,-4.97c-1.433,-4.177 0.794,-8.731 4.97,-10.163c6.511,-2.234 16.89,-3.039 29.33,-2.53c26.603,1.087 63.414,7.74 89.004,14.17c11.295,2.837 20.458,5.661 25.772,7.932c3.533,1.509 5.83,3.101 6.952,4.256c3.077,3.167 3.003,8.236 -0.164,11.313c-3.042,2.955 -7.839,3.004 -10.94,0.196Z" style="fill:#806051;"/></g></g></g><path id="Eye-Left" serif:id="Eye Left" d="M428.608,911.051c-0,-0 60.103,-104.026 194.642,-91.08c134.54,12.945 194.643,99.864 196.493,125.755c1.849,25.89 11.096,33.75 -0,98.939c-11.096,65.189 -46.234,87.844 -46.234,87.844l-159.505,9.247c-0,-0 -48.083,2.774 -107.262,-58.717c-59.179,-61.49 -66.472,-79.059 -66.472,-79.059l-8.479,-47.624l-3.183,-45.305Z" style="fill:none;"/><clipPath id="_clip34"><path d="M428.608,911.051c-0,-0 60.103,-104.026 194.642,-91.08c134.54,12.945 194.643,99.864 196.493,125.755c1.849,25.89 11.096,33.75 -0,98.939c-11.096,65.189 -46.234,87.844 -46.234,87.844l-159.505,9.247c-0,-0 -48.083,2.774 -107.262,-58.717c-59.179,-61.49 -66.472,-79.059 -66.472,-79.059l-8.479,-47.624l-3.183,-45.305Z"/></clipPath><g clip-path="url(#_clip34)"><path d="M368.817,1188.49c0,-0 -42.605,-409.509 91.935,-396.563c134.539,12.945 469.303,1.036 471.153,26.926c1.849,25.891 -103.75,365.423 -103.75,365.423l-459.338,4.214Z" style="fill:#eadfdb;"/><g><g style="filter:url(#_Effect35);"><path d="M458.882,991.026l-31.304,11.077l-20.227,33.712l-38.046,-14.448l1.445,-68.387l21.19,-59.718l54.902,-47.679l43.344,-39.009l135.811,-17.338l146.406,-7.224l52.976,36.12c-0,0 371.521,423.317 155.283,173.849c-216.238,-249.468 -96.528,21.68 -188.032,-48.152c-91.504,-69.831 -151.704,-53.939 -214.793,-44.307c-63.089,9.632 -118.955,91.504 -118.955,91.504Z" style="fill:#ada2a6;"/></g></g><ellipse id="Eye1" serif:id="Eye" cx="669.586" cy="1016.44" rx="122.354" ry="138.889" style="fill:#fff9a5;"/><clipPath id="_clip36"><ellipse cx="669.586" cy="1016.44" rx="122.354" ry="138.889"/></clipPath><g clip-path="url(#_clip36)"><g><g style="filter:url(#_Effect37);"><path d="M1001.38,776.355l0,143.753c0,36.618 -29.729,66.347 -66.347,66.347l-167.129,0c-36.618,0 -66.347,-29.729 -66.347,-66.347l-0,-143.753c-0,-36.618 29.729,-66.348 66.347,-66.348l167.129,0c36.618,0 66.347,29.73 66.347,66.348Z" style="fill:#513863;"/></g></g><g><g style="filter:url(#_Effect38);"><path d="M644.234,1115.86l-0,143.752c-0,36.619 -29.73,66.348 -66.348,66.348l-167.128,-0c-36.619,-0 -66.348,-29.729 -66.348,-66.348l0,-143.752c0,-36.619 29.729,-66.348 66.348,-66.348l167.128,0c36.618,0 66.348,29.729 66.348,66.348Z" style="fill:#513863;"/></g></g><g><g style="filter:url(#_Effect39);"><path d="M1007.99,1104.84l-0,143.753c-0,36.618 -29.729,66.347 -66.348,66.347l-167.128,0c-36.618,0 -66.347,-29.729 -66.347,-66.347l-0,-143.753c-0,-36.618 29.729,-66.348 66.347,-66.348l167.128,0c36.619,0 66.348,29.73 66.348,66.348Z" style="fill:#513863;"/></g></g><g><g style="filter:url(#_Effect40);"><path d="M635.415,776.355l0,143.753c0,36.618 -29.729,66.347 -66.347,66.347l-167.129,0c-36.618,0 -66.347,-29.729 -66.347,-66.347l-0,-143.753c-0,-36.618 29.729,-66.348 66.347,-66.348l167.129,0c36.618,0 66.347,29.73 66.347,66.348Z" style="fill:#513863;"/></g></g></g><path d="M802.913,927.276c0,0 22.481,39.532 18.212,98.708c-3.903,54.099 -42.237,108.688 -42.658,104.056l-1.438,62.555l129.423,4.314l25.453,-284.732l-121.801,-35.232l-7.191,50.331Z" style="fill:#f9d4c1;stroke:#f9d4c1;stroke-width:3.53px;"/><g><g style="filter:url(#_Effect41);"><path d="M464.982,952.855c-0.023,-6.913 -0.41,1.067 -0.41,1.067c0,0 0.135,-0.37 0.41,-1.067c0.013,3.785 -0.082,12.034 -0.41,28.499c-0.924,46.542 39.145,91.234 39.145,91.234l-7.777,10.942l-12.522,-11.559l-32.748,54.902l-65.979,3.853l-45.752,-80.908l5.779,-122.808l60.2,-156.038l144.479,-35.157l310.15,2.408c-0,0 289.441,536.02 -1.912,176.677c-291.353,-359.342 57.686,120.469 -37.065,32.625c-94.751,-87.844 -105.104,-96.166 -212.057,-95.933c-100.511,0.219 -139.231,90.4 -143.531,101.263Z" style="fill:#4f353e;"/></g></g><g><g style="filter:url(#_Effect42);"><path d="M765.214,1135.55c1.148,0.035 3.042,0.108 5.803,0.262c4.409,0.245 7.789,4.023 7.544,8.431c-0.245,4.409 -4.023,7.789 -8.432,7.544c-9.094,-0.505 -9.046,-0.535 -9.791,-0.783l-1.149,-0.628c-19.083,-5.778 -74.816,-2.657 -109.241,1.951c-11.777,1.576 -23.798,4.723 -25.035,5.051c-3.139,2.506 -7.734,2.305 -10.641,-0.601c-3.122,-3.123 -3.122,-8.192 0,-11.314l2.154,-1.684c0.756,-0.468 1.718,-0.959 2.89,-1.432c2.962,-1.197 7.885,-2.473 14.238,-3.649c33.351,-6.176 109.17,-10.688 131.458,-3.259l0.202,0.111Zm-7.739,13.715l-1.509,-1.685c0.427,0.656 0.937,1.217 1.509,1.685Zm10.4,-12.087l1.509,1.685c-0.427,-0.656 -0.937,-1.217 -1.509,-1.685Z" style="fill:#806051;"/></g></g></g><g opacity="0.31"><g style="filter:url(#_Effect43);"><g id="Under-lashes" serif:id="Under lashes"><path d="M505.389,1232.89c-1.366,1.366 -3.584,1.366 -4.95,0c-1.366,-1.366 -1.366,-3.583 0,-4.949c4.048,-4.048 24.404,-18.252 33.156,-31.381c1.149,-1.723 10.378,-15.512 15.555,-20.689c1.366,-1.366 3.584,-1.366 4.949,-0c1.366,1.366 1.366,3.583 0,4.949c-4.901,4.902 -13.592,17.992 -14.679,19.623c-9.016,13.523 -29.862,28.278 -34.031,32.447Z" style="fill:#916a59;"/><path d="M558.151,1233.24c0.048,-0.262 0.146,-0.807 0.223,-1.243c0.631,-3.584 2.451,-11.615 17.213,-33.758c0.776,-1.164 7.018,-10.474 10.516,-13.971c1.366,-1.366 3.583,-1.366 4.949,0c1.366,1.366 1.366,3.584 0,4.95c-3.221,3.221 -8.926,11.832 -9.64,12.904c-15.642,23.463 -15.85,29.715 -16.371,32.396c-0.156,0.806 -0.365,1.438 -0.666,2.01l-1.037,1.4c-1.366,1.366 -3.584,1.366 -4.95,0c-1.282,-1.281 -1.361,-3.313 -0.237,-4.688Z" style="fill:#916a59;"/><path d="M620.549,1230.34c-0.419,1.886 -2.291,3.076 -4.176,2.657c-1.886,-0.419 -3.077,-2.29 -2.658,-4.176c3.353,-15.086 6.966,-33.151 7.543,-36.04c0.379,-1.894 2.225,-3.124 4.119,-2.745c1.894,0.378 3.124,2.224 2.746,4.118c-0.58,2.9 -4.208,21.038 -7.574,36.186Z" style="fill:#916a59;"/><path d="M673.542,1216.14c-0,1.932 -1.568,3.5 -3.5,3.5c-1.932,0 -3.5,-1.568 -3.5,-3.5l-0,-20.156c-0,-1.932 1.568,-3.5 3.5,-3.5c1.932,0 3.5,1.568 3.5,3.5l-0,20.156Z" style="fill:#916a59;"/><path d="M1237.77,1226.04c-0.003,-0.808 0.185,-5.54 4.246,-17.722c0.611,-1.833 2.594,-2.825 4.427,-2.214c1.833,0.611 2.825,2.595 2.214,4.427c-3.985,11.954 -3.863,14.556 -3.886,15.774l-0.104,1.1l-0.28,0.956c-1.297,3.243 -10.597,18.164 -11.612,22.225c-0.469,1.874 -2.371,3.015 -4.245,2.546c-1.874,-0.468 -3.015,-2.37 -2.546,-4.244c1.026,-4.105 10.081,-18.981 11.786,-22.848Z" style="fill:#916a59;"/><path d="M1280.74,1237.33c-0.107,1.929 -1.76,3.408 -3.689,3.301c-1.929,-0.107 -3.408,-1.76 -3.3,-3.689c0.887,-15.969 0.032,-15.762 0.838,-31.894c0.097,-1.93 1.741,-3.418 3.671,-3.321c1.929,0.096 3.417,1.741 3.321,3.67c-0.808,16.152 0.047,15.945 -0.841,31.933Z" style="fill:#916a59;"/><path d="M1356.28,1248.32c0.318,1.905 -0.972,3.71 -2.877,4.027c-1.905,0.318 -3.71,-0.971 -4.028,-2.877c-2.223,-13.337 -0.332,-13.756 -6.397,-25.885l-7.558,-15.117c-0.864,-1.727 -0.163,-3.832 1.565,-4.695c1.728,-0.864 3.832,-0.163 4.696,1.565l7.558,15.117c6.537,13.073 4.645,13.488 7.041,27.865Z" style="fill:#916a59;"/><path d="M1385.7,1212.55c-1.728,-0.864 -2.429,-2.968 -1.565,-4.696c0.863,-1.727 2.967,-2.429 4.695,-1.565c15.163,7.581 20.848,15.379 26.893,24.358c3.724,5.532 7.591,11.551 14.329,18.29c1.366,1.366 1.366,3.583 0,4.949c-1.366,1.366 -3.584,1.366 -4.95,0c-7.129,-7.129 -11.246,-13.477 -15.186,-19.33c-5.451,-8.097 -10.543,-15.169 -24.216,-22.006Z" style="fill:#916a59;"/></g></g></g><g opacity="0.38"><g style="filter:url(#_Effect44);"><path d="M935.76,1456.66c0.625,0.011 1.257,0.077 1.891,0.204c5.683,1.137 9.374,6.673 8.237,12.356c-0.427,2.136 -0.625,11.591 -2.485,17.171l-2.746,5.212c-0.533,0.723 -1.463,1.172 -1.849,2.522c-0.82,2.869 -1.728,4.708 -2.419,5.801l-3.249,3.468l-3.194,1.567l-2.972,0.468l-3.895,-0.649l-2.982,-1.645l-2.789,-3.165l-1.672,-4.571c-0.785,-4.167 -0.234,-13.486 3.255,-20.465c0.676,-1.352 0.56,-1.817 0.545,-3.206c-0.018,-1.625 -0.04,-3.722 0.074,-6.691c0.223,-5.791 5.105,-10.312 10.896,-10.089c1.979,0.076 3.81,0.697 5.354,1.712Z" style="fill:#fff;"/></g></g><g opacity="0.4"><g style="filter:url(#_Effect45);"><path d="M420.44,840.175c0,-0 117.611,-79.659 260.802,-130.568c112.03,-39.83 288.904,-32.754 288.904,-32.754c0,0 5.494,-72.2 5.879,-83.144c0.952,-27.042 6.719,-78.105 6.719,-78.105c-0,0 8.457,57.19 10.078,82.304c2.795,43.315 8.04,76.885 8.04,76.885c-0,-0 111.241,-2.558 280.024,39.853c108.282,27.208 245.836,133.63 245.836,133.63l36.35,-51.326l-441.23,-638.863l-555.543,98.418l-199.157,519.356l53.298,64.314Z" style="fill:#340000;stroke:#000;stroke-width:3.53px;"/></g></g><g opacity="0.56"><g style="filter:url(#_Effect46);"><g id="Under-eye-dots" serif:id="Under eye dots"><path d="M563.252,1138.23c-2.787,-0 -5.05,-2.263 -5.05,-5.05c0,-2.787 2.263,-5.05 5.05,-5.05l1.798,-0c2.787,-0 5.05,2.263 5.05,5.05c0,2.787 -2.263,5.05 -5.05,5.05l-1.798,-0Z" style="fill:#ad7368;"/><path d="M597.406,1146.32c-2.787,-0 -5.05,-2.263 -5.05,-5.05c0,-2.787 2.263,-5.05 5.05,-5.05l0.899,-0c2.787,-0 5.05,2.263 5.05,5.05c-0,2.787 -2.263,5.05 -5.05,5.05l-0.899,-0Z" style="fill:#ad7368;"/><path d="M1365.26,1163.04c0.882,2.644 -0.549,5.507 -3.194,6.388c-2.644,0.881 -5.506,-0.55 -6.387,-3.194c-0.934,-2.8 -1.171,-2.228 -2.423,-4.731c-1.246,-2.493 -0.234,-5.529 2.259,-6.775c2.493,-1.247 5.529,-0.235 6.775,2.258c1.588,3.175 1.786,2.502 2.97,6.054Z" style="fill:#ac7473;"/><path d="M1385.19,1151.96c0.546,2.733 -1.229,5.395 -3.962,5.942c-2.733,0.547 -5.396,-1.229 -5.942,-3.962l-0.899,-4.493c-0.547,-2.734 1.228,-5.396 3.961,-5.943c2.734,-0.546 5.396,1.229 5.943,3.962l0.899,4.494Z" style="fill:#ad7368;"/></g></g></g></g><path d="M417.788,1268.79l82.895,192.049c0,-0 14.524,60.952 132.177,145.984c117.652,85.033 276.429,150.5 276.429,150.5c-0,-0 45.15,29.347 95.567,8.277c50.417,-21.07 216.649,-92.804 254.861,-129.547c38.213,-36.743 126.396,-80.506 186.655,-207.801c60.258,-127.295 70.666,-149.308 70.666,-149.308l48.16,-188.425l84.882,-74.077l1.702,-210.188l-51.734,-228.101l-123.456,-124.632l-208.113,-96.414l-229.276,-98.765l-161.081,16.461l-282.187,77.601l-112.874,63.492l-107.756,239.858l-30.366,126.256l-0,167.688l30.366,120.987l-0,71.088l20.748,73.651l21.735,53.366Z" style="fill:none;stroke:#684937;stroke-width:3.53px;"/><g id="Cat-Ears" serif:id="Cat Ears"><g style="filter:url(#_Effect47);"><g id="Left-ear3" serif:id="Left ear"><path d="M246.455,682.87c-0,0 -36.233,18.411 -85.965,-64.042c-55.64,-92.247 -79.001,-362.989 -79.001,-362.989c-0,-0 -14.382,-5.976 -28.637,-11.159c-13.476,-4.899 -21.672,-17.337 -21.672,-17.337c0,-0 5.124,-5.057 11.231,-15.893c6.107,-10.836 5.941,-24.378 -3.682,-30.596c-11.433,-7.388 -18.385,-19.249 -18.385,-19.249c0,-0 29.024,-10.573 29.451,-19.133c0.453,-9.069 -11.431,-23.866 -10.345,-29.572c0.697,-3.667 18.922,-0.442 19.489,-6.282c0.39,-4.01 -3.999,-18.301 -7.756,-25.694c-3.757,-7.393 -9.393,-44.689 0.752,-54.126c11.899,-11.07 51.37,5.619 91.503,19.264c40.134,13.645 169.363,44.146 188.626,46.554c19.264,2.408 163.744,27.291 178.995,31.304c15.25,4.014 116.386,21.672 116.386,21.672l-380.99,537.278Z" style="fill:#1d4042;stroke:#382829;stroke-width:3.53px;"/><path d="M241.327,596.747l-26.087,-5.016c-0,-0 -69.834,-101.617 -77.256,-199.663c-9.535,-125.943 5.016,-322.227 5.016,-322.227c0,0 74.13,35.506 126.42,95.274c35.314,40.364 131.436,67.424 131.436,67.424l65.216,30.1l-224.745,334.108Z" style="fill:#102128;"/><clipPath id="_clip48"><path d="M241.327,596.747l-26.087,-5.016c-0,-0 -69.834,-101.617 -77.256,-199.663c-9.535,-125.943 5.016,-322.227 5.016,-322.227c0,0 74.13,35.506 126.42,95.274c35.314,40.364 131.436,67.424 131.436,67.424l65.216,30.1l-224.745,334.108Z"/></clipPath><g clip-path="url(#_clip48)"><path d="M322.364,378.055l-68.066,1.284c0,0 20.548,-16.695 15.411,-22.474c-5.137,-5.78 -34.675,-0 -34.675,-0c0,-0 37.244,-37.244 37.244,-46.876c-0,-9.632 -28.896,-41.096 -28.896,-41.096c-0,-0 26.327,-0.643 34.033,-8.99c7.705,-8.348 3.211,-30.18 3.211,-30.18c-0,-0 34.033,1.284 38.527,-5.137c4.495,-6.422 0.643,-17.98 0.643,-17.98l59.076,-5.137l48.802,19.906l-105.31,156.68Z" style="fill:#32605e;stroke:#32605e;stroke-width:3.53px;"/></g><path d="M241.327,596.747l-26.087,-5.016c-0,-0 -69.834,-101.617 -77.256,-199.663c-9.535,-125.943 5.016,-322.227 5.016,-322.227c0,0 74.13,35.506 126.42,95.274c35.314,40.364 131.436,67.424 131.436,67.424l65.216,30.1l-224.745,334.108Z" style="fill:none;stroke:#382829;stroke-width:3.53px;"/></g></g><g style="filter:url(#_Effect49);"><g id="Right-ear" serif:id="Right ear"><path d="M1680.85,681.814c-0,0 55.503,-25.918 90.661,-111.4c71.613,-174.118 76.824,-352.911 81.572,-354.883c11.39,-4.731 27.834,-6.903 27.834,-6.903l-14.176,-34.434c-0,-0 23.783,-9.77 23.424,-18.33c-0.38,-9.069 -20.512,-5.723 -16.996,-10.309c3.428,-4.469 37.307,-21.31 36.831,-27.151c-0.327,-4.01 -40.209,-17.498 -37.053,-24.891c3.155,-7.393 -11.824,-51.442 -20.698,-60.547c-41.299,-42.374 -36.724,-8.83 -86.484,22.474c-30.78,19.364 -123.781,40.134 -139.961,42.542c-16.179,2.408 -141.537,40.935 -159.161,45.751c-12.948,3.538 -94.539,27.291 -94.539,27.291l308.746,510.79Z" style="fill:#1d4042;stroke:#382829;stroke-width:3.53px;"/><path d="M1609.71,560.374l82.11,15.05c-0,-0 67.142,-104.803 85.755,-201.268c26.468,-137.18 20.669,-291.726 20.669,-291.726c-0,0 -77.537,54.978 -143.099,89.655c-64.174,33.943 -124.035,92.307 -124.035,92.307l-23.47,23.678l102.07,272.304Z" style="fill:#102128;"/><clipPath id="_clip50"><path d="M1609.71,560.374l82.11,15.05c-0,-0 67.142,-104.803 85.755,-201.268c26.468,-137.18 20.669,-291.726 20.669,-291.726c-0,0 -77.537,54.978 -143.099,89.655c-64.174,33.943 -124.035,92.307 -124.035,92.307l-23.47,23.678l102.07,272.304Z"/></clipPath><g clip-path="url(#_clip50)"><path d="M1623.52,447.633l19.28,-17.201l7.985,-18.249l19.467,9.444c-3.224,-3.869 -12.671,-36.63 -9.95,-51.772c2.29,-12.749 13.135,-0.44 25.1,-2.809c6.687,-1.325 -34.075,-49.444 -34.075,-49.444c-0,-0 23.64,-14.288 17.168,-22.636c-6.471,-8.347 -25.749,-6.501 -26.776,-16.534c-1.027,-10.034 24.392,-37.244 20.617,-43.665c-3.775,-6.422 -27.998,9.672 -33.448,-1.927c-6.085,-12.949 -3.062,-75.771 -3.062,-75.771l-121.254,99.37l118.948,191.194Z" style="fill:#305d5b;stroke:#32605e;stroke-width:3.53px;"/></g><path d="M1609.71,560.374l82.11,15.05c-0,-0 67.142,-104.803 85.755,-201.268c26.468,-137.18 20.669,-291.726 20.669,-291.726c-0,0 -77.537,54.978 -143.099,89.655c-64.174,33.943 -124.035,92.307 -124.035,92.307l-23.47,23.678l102.07,272.304Z" style="fill:none;stroke:#382829;stroke-width:3.53px;"/></g></g></g><g id="Hair"><path id="Front-Hair" serif:id="Front Hair" d="M268.509,1132.72c0,-0 -74.097,-133.97 -64.691,-320.599c9.406,-186.628 10.347,-291.037 74.309,-404.852c63.962,-113.815 113.815,-175.896 178.718,-221.987c64.903,-46.09 164.703,-90.731 218.741,-115.442c54.039,-24.71 479.199,-92.435 723.761,87.224c244.561,179.658 279.364,384.713 296.296,463.726c16.931,79.012 38.565,227.345 -0,362.937c-38.566,135.592 -50.194,135.128 -50.194,135.128c-0,-0 -12.753,-29.625 -26.766,-28.568c-27.867,2.103 -59.553,42.277 -81.065,80.766l13.169,-358.932c-0,0 -74.309,-52.119 -116.637,-71.873c-42.328,-19.753 -95.003,-39.506 -95.003,-39.506c0,0 -1.567,-161.982 -17.369,-195.092c-15.802,-33.11 -17.44,-41.387 -17.44,-41.387c-0,-0 7.139,77.817 8.861,94.294c1.726,16.521 4.685,54.001 4.931,68.056c0.225,12.813 1.973,71.261 1.973,71.261c0,-0 -34.922,-16.521 -51.103,-19.218c-16.182,-2.697 -47.389,-8.091 -47.389,-8.091c-0,0 -7.706,-61.259 -14.256,-94.778c-6.55,-33.52 -24.272,-109.805 -24.272,-109.805c-0,0 -5.602,-45.489 -6.33,-49.86c-3.261,-19.578 6.282,47.784 6.33,49.86c0.597,26.2 2.136,97.553 1.541,108.264c-0.771,13.87 1.926,92.466 1.926,92.466c0,0 -43.536,-10.402 -55.095,-11.943c-11.558,-1.541 -54.709,-7.321 -54.709,-7.321c-0,0 -3.853,-45.462 -5.394,-54.709c-1.541,-9.247 -12.714,-71.662 -12.714,-71.662c-0,0 -2.032,-35.303 -2.22,-31.487c-0.072,1.448 2.308,29.659 2.22,31.487c-0.867,17.895 -2.978,62.889 -2.697,69.35c0.385,8.862 3.082,59.718 3.082,59.718c0,0 -27.355,-3.467 -18.493,-3.082c8.861,0.385 -19.264,-3.467 -19.264,-3.467c-0,-0 -8.476,-31.593 -9.632,-49.701c-1.156,-18.108 -14.255,-142.168 -13.87,-166.826c0.385,-24.658 -5.009,-89.77 -5.009,-89.77c0,0 -13.87,31.593 -14.255,41.61c-0.385,10.018 -18.879,110.19 -18.879,127.142c0,16.953 -4.623,81.679 -4.238,91.311c0.385,9.632 -0.385,47.389 -0.385,47.389c-0,0 -62.415,-2.696 -53.168,-0.385c9.246,2.312 -58.948,1.156 -58.948,1.156c-0,0 0.771,-62.415 1.926,-96.705c1.156,-34.29 -1.541,-110.189 -1.541,-110.189c0,-0 -16.567,63.571 -16.952,70.12c-0.385,6.55 -9.247,58.948 -9.632,68.194c-0.385,9.247 -3.082,76.671 -3.082,76.671c-0,-0 -38.143,1.156 -61.645,6.935c-23.502,5.779 -71.276,12.714 -71.276,12.714c-0,0 0.385,-28.511 2.697,-55.095c1.612,-18.546 -1.371,-54.524 -2.697,-68.579c-0.1,-1.063 4.72,-26.092 4.72,-26.092l-4.72,26.092c-0,-0 -14.641,30.822 -16.952,63.571c-2.312,32.748 -3.083,70.12 -3.083,70.12c0,0 -6.935,3.853 -16.567,5.009c-9.632,1.156 -15.026,3.082 -15.026,3.082c0,0 -1.541,-22.731 -0.385,-56.636c0.74,-21.691 -2.743,-63.689 -4.238,-80.138c-0.149,-1.637 -0.019,-26.937 -0.019,-26.937l0.019,26.937c0,0 -10.788,61.26 -10.402,72.818c0.385,11.558 -1.541,71.662 -1.541,71.662c-0,-0 -15.797,3.467 -22.732,8.476c-6.935,5.008 -21.19,10.017 -21.19,10.017c-0,0 1.926,-11.173 0.385,-36.216c-0.778,-12.639 -3.655,-33.177 -4.623,-40.069c-0.203,-1.442 -0,-21.534 -0,-21.534l-0,21.534c-0,-0 -7.321,31.593 -7.321,40.454c0,8.862 0.386,40.84 0.386,40.84c-0,-0 -26.199,6.935 -62.801,31.593c-36.601,24.657 -64.726,45.077 -64.726,45.077l-71.277,37.372l33.739,246.821l12.86,117.578c-14.763,-16.425 -59.048,-25.294 -60.97,-44.035c-4.387,-42.785 -35.49,-63.179 -50.034,-61.982c-18.168,1.496 -25.673,37.718 -25.673,37.718Z" style="fill:#1d4346;"/><clipPath id="_clip51"><path id="Front-Hair1" serif:id="Front Hair" d="M268.509,1132.72c0,-0 -74.097,-133.97 -64.691,-320.599c9.406,-186.628 10.347,-291.037 74.309,-404.852c63.962,-113.815 113.815,-175.896 178.718,-221.987c64.903,-46.09 164.703,-90.731 218.741,-115.442c54.039,-24.71 479.199,-92.435 723.761,87.224c244.561,179.658 279.364,384.713 296.296,463.726c16.931,79.012 38.565,227.345 -0,362.937c-38.566,135.592 -50.194,135.128 -50.194,135.128c-0,-0 -12.753,-29.625 -26.766,-28.568c-27.867,2.103 -59.553,42.277 -81.065,80.766l13.169,-358.932c-0,0 -74.309,-52.119 -116.637,-71.873c-42.328,-19.753 -95.003,-39.506 -95.003,-39.506c0,0 -1.567,-161.982 -17.369,-195.092c-15.802,-33.11 -17.44,-41.387 -17.44,-41.387c-0,-0 7.139,77.817 8.861,94.294c1.726,16.521 4.685,54.001 4.931,68.056c0.225,12.813 1.973,71.261 1.973,71.261c0,-0 -34.922,-16.521 -51.103,-19.218c-16.182,-2.697 -47.389,-8.091 -47.389,-8.091c-0,0 -7.706,-61.259 -14.256,-94.778c-6.55,-33.52 -24.272,-109.805 -24.272,-109.805c-0,0 -5.602,-45.489 -6.33,-49.86c-3.261,-19.578 6.282,47.784 6.33,49.86c0.597,26.2 2.136,97.553 1.541,108.264c-0.771,13.87 1.926,92.466 1.926,92.466c0,0 -43.536,-10.402 -55.095,-11.943c-11.558,-1.541 -54.709,-7.321 -54.709,-7.321c-0,0 -3.853,-45.462 -5.394,-54.709c-1.541,-9.247 -12.714,-71.662 -12.714,-71.662c-0,0 -2.032,-35.303 -2.22,-31.487c-0.072,1.448 2.308,29.659 2.22,31.487c-0.867,17.895 -2.978,62.889 -2.697,69.35c0.385,8.862 3.082,59.718 3.082,59.718c0,0 -27.355,-3.467 -18.493,-3.082c8.861,0.385 -19.264,-3.467 -19.264,-3.467c-0,-0 -8.476,-31.593 -9.632,-49.701c-1.156,-18.108 -14.255,-142.168 -13.87,-166.826c0.385,-24.658 -5.009,-89.77 -5.009,-89.77c0,0 -13.87,31.593 -14.255,41.61c-0.385,10.018 -18.879,110.19 -18.879,127.142c0,16.953 -4.623,81.679 -4.238,91.311c0.385,9.632 -0.385,47.389 -0.385,47.389c-0,0 -62.415,-2.696 -53.168,-0.385c9.246,2.312 -58.948,1.156 -58.948,1.156c-0,0 0.771,-62.415 1.926,-96.705c1.156,-34.29 -1.541,-110.189 -1.541,-110.189c0,-0 -16.567,63.571 -16.952,70.12c-0.385,6.55 -9.247,58.948 -9.632,68.194c-0.385,9.247 -3.082,76.671 -3.082,76.671c-0,-0 -38.143,1.156 -61.645,6.935c-23.502,5.779 -71.276,12.714 -71.276,12.714c-0,0 0.385,-28.511 2.697,-55.095c1.612,-18.546 -1.371,-54.524 -2.697,-68.579c-0.1,-1.063 4.72,-26.092 4.72,-26.092l-4.72,26.092c-0,-0 -14.641,30.822 -16.952,63.571c-2.312,32.748 -3.083,70.12 -3.083,70.12c0,0 -6.935,3.853 -16.567,5.009c-9.632,1.156 -15.026,3.082 -15.026,3.082c0,0 -1.541,-22.731 -0.385,-56.636c0.74,-21.691 -2.743,-63.689 -4.238,-80.138c-0.149,-1.637 -0.019,-26.937 -0.019,-26.937l0.019,26.937c0,0 -10.788,61.26 -10.402,72.818c0.385,11.558 -1.541,71.662 -1.541,71.662c-0,-0 -15.797,3.467 -22.732,8.476c-6.935,5.008 -21.19,10.017 -21.19,10.017c-0,0 1.926,-11.173 0.385,-36.216c-0.778,-12.639 -3.655,-33.177 -4.623,-40.069c-0.203,-1.442 -0,-21.534 -0,-21.534l-0,21.534c-0,-0 -7.321,31.593 -7.321,40.454c0,8.862 0.386,40.84 0.386,40.84c-0,-0 -26.199,6.935 -62.801,31.593c-36.601,24.657 -64.726,45.077 -64.726,45.077l-71.277,37.372l33.739,246.821l12.86,117.578c-14.763,-16.425 -59.048,-25.294 -60.97,-44.035c-4.387,-42.785 -35.49,-63.179 -50.034,-61.982c-18.168,1.496 -25.673,37.718 -25.673,37.718Z"/></clipPath><g clip-path="url(#_clip51)"><g><g style="filter:url(#_Effect52);"><path d="M154.989,729.801l64.177,21.358c-0,0 10.679,-69.969 12.712,-98.247c0.65,-9.039 12.815,-61.939 12.815,-61.939c0,-0 7.258,23.06 26.891,76.015c0.541,1.458 32.912,67.085 32.912,67.085l53.395,-17.087l0,-70.482l-27.765,-40.58c-0,-0 -20.279,-23.187 -36.695,-49.124c-8.237,-13.014 -19.404,-49.408 -19.404,-49.408c0,0 133.723,-440.271 686.471,-437.551c463.596,2.281 625.489,316.093 625.489,316.093c-0,0 14.769,-5.611 -17.292,-73.697c-18.999,-40.348 -36.104,-118.526 -36.104,-118.526l-187.952,-147.372l-659.967,-46.339l-320.373,197.982l-181.545,313.966l-27.765,217.853Z" style="fill:#4e8b7b;stroke:#4e8b7b;stroke-width:3.53px;"/></g></g><g opacity="0.4"><g style="filter:url(#_Effect53);"><g id="Darker"><path d="M357.362,665.03c5.554,-11.203 21.66,-42.866 31.855,-54.407l5.583,-4.981c11.884,-16.349 38.763,-51.002 67.037,-71.696l14.971,-17.072c8.753,-7.385 21.079,-16.257 40.31,-25.872c-6.957,3.478 -9.679,5.924 -12.536,8.431l30.989,-20.733l47.686,-14.058c8.079,-1.211 22.437,-2.923 32.779,-4.115c23.663,-17.444 93.668,-61.638 144.934,-71.067l52.044,-1.249l21.973,7.635c1.766,-1.012 3.511,-1.95 5.225,-2.801l27.66,-10.835l31.857,-6.046c161.53,-14.685 224.846,14.123 248.698,33.704c18.168,-4.628 46.359,-8.47 91.97,0.652l37.939,14.219l1.141,0.98l28.189,-3.302l28.084,4.106c20.537,5.196 59.705,21.357 85.453,39.01l26.496,22.269l4.411,6.229c2.538,2.409 9.055,8.65 18.383,17.978c46.729,46.73 73.254,122.415 75.707,129.774c11.562,34.687 4.087,35.623 14.474,77.171l4.016,42.006l-5.486,26.02l-11.696,23.569l-23.365,24.883l-30.776,16.066l-32.632,4.996l-39.577,-7.927l-29.56,-16.254c-15.036,-9.968 -43.884,-31.591 -90.18,-44.818c-160.653,-45.901 -313.41,-80.869 -573.618,-28.827c-65.624,13.124 -118.644,39.729 -128.368,44.591c-32.319,16.16 -69.193,13.377 -97.964,-4.129c-39.298,26.12 -92.885,21.86 -127.523,-12.778c-32.849,-32.848 -38.376,-82.738 -16.583,-121.322Zm371.894,-112.587c0.329,-0.058 0.658,-0.116 0.987,-0.174l-7.576,-14.613c1.811,5.433 4.025,10.345 6.589,14.787Zm666.615,11.878c3.005,-7.222 5.671,-16.207 7.023,-27.066l-7.023,27.066Zm58.385,-67.259l14.69,20.745c-2.569,-5.138 -10.229,-15.108 -14.69,-20.745Zm-114.641,-52.176l20.157,15.864c-6.842,-6.842 -13.592,-12.006 -20.157,-15.864Zm-47.419,-10.014c-0.62,0.062 -1.232,0.128 -1.837,0.198l20.388,17.518c-5.271,-6.345 -10.524,-12.566 -18.551,-17.716Zm-88.948,71.907c-0.61,2.135 -1.019,3.991 -1.203,5.465l1.203,-5.465Zm-99.398,-75.411c-5.41,3.167 -10.866,7.178 -16.313,12.303l16.313,-12.303Zm-199.273,23.454l10.104,18.83c-2.664,-7.991 -6.218,-14.084 -10.104,-18.83Zm-324.671,51.857c-1.232,2.075 -2.194,4.065 -2.816,5.93l2.816,-5.93Zm-112.968,23.7c3.741,-2.491 7.493,-4.706 11.223,-6.571c-4.245,2.122 -7.941,4.303 -11.223,6.571Zm-6.105,4.712c-5.329,4.598 -9.46,9.593 -13.324,15.194l13.324,-15.194Zm-25.213,43.932l2.486,-1.244c-0.585,0.195 -1.43,0.623 -2.486,1.244Z"/><path d="M1424.1,1154.84c-0.941,2.12 -1.58,4.114 -2.914,6.784c1.775,-3.551 3.554,-7.026 5.328,-10.421c3.384,-4.863 7.243,-9.495 11.578,-13.83l3.74,-3.648c-7.104,6.726 -11.216,11.195 -13.793,14.58c23.743,-44.872 46.363,-75.072 49.939,-79.757c24.284,-48.375 26.524,-47.652 56.577,-95.736c9.223,-14.757 16.917,-26.925 23.278,-36.887c-13.231,-7.545 -24.95,-18.2 -33.967,-31.725c-30.982,-46.473 -18.405,-109.357 28.068,-140.339c51.475,-34.317 64.674,-80.742 76.165,-100.641l15.135,-19.763c4.715,-20.435 25.438,-110.395 28.623,-126.497l9.983,-30.453l22.171,-29.081l19.953,-14.146l22.294,-8.824l26.595,-3.351l28.835,4.421l24.655,11.343l17.317,13.877l17.087,22.699l12.554,38.169c5.621,34.938 14.505,197.468 -2.557,252.066c-44.325,141.841 -94.184,189.236 -108.596,218.061c-3.742,7.483 -4.91,6.665 -55.959,88.343c-25.489,40.784 -27.276,39.168 -48.611,81.839c-7.222,14.445 -26.609,32.714 -55.36,90.217l-21.008,28.351c-39.494,39.495 -103.623,39.495 -143.118,0c-34.091,-34.091 -38.755,-86.538 -13.992,-125.651Zm-0,-0c0.838,-1.889 1.916,-3.878 3.939,-6.535c-0.508,0.96 -1.016,1.926 -1.525,2.898c-0.833,1.199 -1.638,2.411 -2.414,3.637Zm252.79,-541.505l2.063,-1.454c-0.003,-0.052 -0.007,-0.103 -0.011,-0.155c-0.637,0.474 -1.324,1.013 -2.052,1.609Z"/><path d="M354.334,776.522c18.112,23.386 28.309,45.803 36.216,68.839c6.648,19.369 7.696,40.468 26.583,66.909l18.072,34.49l9.963,43.317c3.269,28.972 0.444,61.165 -4.381,83.554l-10.583,33.28l-14.893,24.56l-20.768,19.82l-27.758,14.226c0.402,-0.134 3.821,-1.349 3.821,-1.349c-0,-0 -41.066,15.383 -71.704,18.191l-34.563,-0.217l-29.221,-6.373l-41.271,-19.573l-16.419,-13.661c4.318,2.715 7.702,4.251 9.578,5.189l-12.143,-7.324l-14.357,-11.945c3.76,3.994 7.389,7.189 10.72,9.752l-11.182,-6.743l-22.218,-19.785l-24.123,-40.923c0.885,2.656 3.888,9.407 3.888,9.407c-0,0 -2.132,-3.419 -2.337,-3.727c-13.097,-19.646 -23.38,-38.198 -31.808,-56.321c-9.628,-1.287 -19.106,-3.957 -28.111,-8.011c6.645,2.64 12.156,3.616 16.27,4.353l-35.332,-15.611c-3.798,-2.849 -7.44,-6.001 -10.894,-9.455c3.578,3.578 7.032,6.62 10.344,9.212l-2.757,-1.218l-16.939,-15.707l-13.705,-20.639c-23.242,-46.483 -44.573,-84.11 -53.655,-115.936l-7.453,-51.703l5.583,-40.798l22.769,-48.245l33.88,-36.502c10.421,-8.684 21.303,-28.99 35.005,-49.435c23.762,-35.455 49.814,-73.059 74.691,-98.481c11.918,-12.179 23.957,-22.246 35.597,-29.999l34.786,-17.631l39.894,-7.837l46.08,6.481l39.087,21.996l24.503,28.114l19.026,45.328c3.682,14.808 6.061,32.912 6.835,53.192c1.6,41.942 -2.807,124.045 -4.616,154.939Zm-298.999,235.582c-5.746,-2.282 -12.339,-5.809 -19.612,-11.501l0.55,0.243c6.008,4.509 12.406,8.262 19.062,11.258Zm122.093,130.431c-1.903,-1.197 -3.986,-2.623 -6.202,-4.328l3.637,2.193l2.565,2.135Zm-102.638,-125.479c2.698,0.518 5.294,0.906 7.791,1.187c-0.169,-0.368 -0.337,-0.737 -0.504,-1.105l-7.287,-0.082Zm226.104,-32.613l7.054,5.358c-1.219,-1.234 -3.255,-3.662 -7.054,-5.358Zm-3.046,7.115l7.868,15.194c-1.493,-4.479 -4.426,-9.854 -7.868,-15.194Z"/></g></g></g></g><path id="Front-Hair2" serif:id="Front Hair" d="M268.509,1132.72c0,-0 -74.097,-133.97 -64.691,-320.599c9.406,-186.628 10.347,-291.037 74.309,-404.852c63.962,-113.815 113.815,-175.896 178.718,-221.987c64.903,-46.09 164.703,-90.731 218.741,-115.442c54.039,-24.71 479.199,-92.435 723.761,87.224c244.561,179.658 279.364,384.713 296.296,463.726c16.931,79.012 38.565,227.345 -0,362.937c-38.566,135.592 -50.194,135.128 -50.194,135.128c-0,-0 -12.753,-29.625 -26.766,-28.568c-27.867,2.103 -59.553,42.277 -81.065,80.766l13.169,-358.932c-0,0 -74.309,-52.119 -116.637,-71.873c-42.328,-19.753 -95.003,-39.506 -95.003,-39.506c0,0 -1.567,-161.982 -17.369,-195.092c-15.802,-33.11 -17.44,-41.387 -17.44,-41.387c-0,-0 7.139,77.817 8.861,94.294c1.726,16.521 4.685,54.001 4.931,68.056c0.225,12.813 1.973,71.261 1.973,71.261c0,-0 -34.922,-16.521 -51.103,-19.218c-16.182,-2.697 -47.389,-8.091 -47.389,-8.091c-0,0 -7.706,-61.259 -14.256,-94.778c-6.55,-33.52 -24.272,-109.805 -24.272,-109.805c-0,0 -5.602,-45.489 -6.33,-49.86c-3.261,-19.578 6.282,47.784 6.33,49.86c0.597,26.2 2.136,97.553 1.541,108.264c-0.771,13.87 1.926,92.466 1.926,92.466c0,0 -43.536,-10.402 -55.095,-11.943c-11.558,-1.541 -54.709,-7.321 -54.709,-7.321c-0,0 -3.853,-45.462 -5.394,-54.709c-1.541,-9.247 -12.714,-71.662 -12.714,-71.662c-0,0 -2.032,-35.303 -2.22,-31.487c-0.072,1.448 2.308,29.659 2.22,31.487c-0.867,17.895 -2.978,62.889 -2.697,69.35c0.385,8.862 3.082,59.718 3.082,59.718c0,0 -27.355,-3.467 -18.493,-3.082c8.861,0.385 -19.264,-3.467 -19.264,-3.467c-0,-0 -8.476,-31.593 -9.632,-49.701c-1.156,-18.108 -14.255,-142.168 -13.87,-166.826c0.385,-24.658 -5.009,-89.77 -5.009,-89.77c0,0 -13.87,31.593 -14.255,41.61c-0.385,10.018 -18.879,110.19 -18.879,127.142c0,16.953 -4.623,81.679 -4.238,91.311c0.385,9.632 -0.385,47.389 -0.385,47.389c-0,0 -62.415,-2.696 -53.168,-0.385c9.246,2.312 -58.948,1.156 -58.948,1.156c-0,0 0.771,-62.415 1.926,-96.705c1.156,-34.29 -1.541,-110.189 -1.541,-110.189c0,-0 -16.567,63.571 -16.952,70.12c-0.385,6.55 -9.247,58.948 -9.632,68.194c-0.385,9.247 -3.082,76.671 -3.082,76.671c-0,-0 -38.143,1.156 -61.645,6.935c-23.502,5.779 -71.276,12.714 -71.276,12.714c-0,0 0.385,-28.511 2.697,-55.095c1.612,-18.546 -1.371,-54.524 -2.697,-68.579c-0.1,-1.063 4.72,-26.092 4.72,-26.092l-4.72,26.092c-0,-0 -14.641,30.822 -16.952,63.571c-2.312,32.748 -3.083,70.12 -3.083,70.12c0,0 -6.935,3.853 -16.567,5.009c-9.632,1.156 -15.026,3.082 -15.026,3.082c0,0 -1.541,-22.731 -0.385,-56.636c0.74,-21.691 -2.743,-63.689 -4.238,-80.138c-0.149,-1.637 -0.019,-26.937 -0.019,-26.937l0.019,26.937c0,0 -10.788,61.26 -10.402,72.818c0.385,11.558 -1.541,71.662 -1.541,71.662c-0,-0 -15.797,3.467 -22.732,8.476c-6.935,5.008 -21.19,10.017 -21.19,10.017c-0,0 1.926,-11.173 0.385,-36.216c-0.778,-12.639 -3.655,-33.177 -4.623,-40.069c-0.203,-1.442 -0,-21.534 -0,-21.534l-0,21.534c-0,-0 -7.321,31.593 -7.321,40.454c0,8.862 0.386,40.84 0.386,40.84c-0,-0 -26.199,6.935 -62.801,31.593c-36.601,24.657 -64.726,45.077 -64.726,45.077l-71.277,37.372l33.739,246.821l12.86,117.578c-14.763,-16.425 -59.048,-25.294 -60.97,-44.035c-4.387,-42.785 -35.49,-63.179 -50.034,-61.982c-18.168,1.496 -25.673,37.718 -25.673,37.718Z" style="fill:none;stroke:#382728;stroke-width:3.53px;"/><g id="Side-bangs" serif:id="Side bangs"><path d="M1451,377.332c-0,-0 87.415,277.93 75.017,476.936c-17.396,279.246 -106.422,453.513 -106.422,453.513c0,-0 35.965,-7.48 78.146,-20.143c37.407,-11.23 57.68,-32.544 57.68,-32.544c0,0 59.714,-220.056 42.557,-499.704c-20.25,-330.067 -177.781,-519.65 -177.781,-519.65l67.529,108.15l1.453,12.774l-38.179,20.668Z" style="fill:#1d4346;"/><clipPath id="_clip54"><path d="M1451,377.332c-0,-0 87.415,277.93 75.017,476.936c-17.396,279.246 -106.422,453.513 -106.422,453.513c0,-0 35.965,-7.48 78.146,-20.143c37.407,-11.23 57.68,-32.544 57.68,-32.544c0,0 59.714,-220.056 42.557,-499.704c-20.25,-330.067 -177.781,-519.65 -177.781,-519.65l67.529,108.15l1.453,12.774l-38.179,20.668Z"/></clipPath><g clip-path="url(#_clip54)"><g><g style="filter:url(#_Effect55);"><path d="M1546.62,1259.72c0,0 51.117,-191.039 36.365,-469.134c-20.729,-390.806 -199.545,-571.09 -199.545,-571.09l40.312,-22.171l361.425,523.322l-172.587,624.905l-65.97,-85.832Z" style="fill:#518b7c;stroke:#4e8b7b;stroke-width:3.53px;"/></g></g><g opacity="0.4"><g style="filter:url(#_Effect56);"><path d="M1406.03,1254.65c-2.006,-5.956 -2.163,-12.588 -0.025,-19.004c4.925,-14.773 14.195,-24.621 28.118,-33.736c15.358,-10.054 40.347,-20.211 63.724,-66.965l7.417,-9.616c1.354,-1.198 5.482,-3.06 15.548,-23.191c10.645,-21.291 22.645,-39.305 24.832,-42.586c2.765,-4.148 1.857,-4.231 27.658,-55.832l5.727,-9.282l7.607,-8.156l9.372,-6.388l10.526,-4.013l10.782,-1.457l10.295,0.803l9.451,2.575c2.856,1.05 5.715,2.355 8.541,3.919c37.152,20.559 78.234,103.302 -11.577,178.144c-24.538,20.448 -42.238,35.097 -53.705,46.077c-0.293,0.281 -0.581,0.555 -0.863,0.824c7.115,6.621 10.883,16.575 9.166,26.872c-2.591,15.549 -4.121,14.485 -10.956,28.154l-7.771,10.761l-11.298,7.666c-7.502,3.581 -27.101,9.173 -88.453,33.714l-12.179,2.53c-9.037,0.822 -30.075,1.743 -40.858,1.273l-12.548,-1.816l-8.907,-4.24l-6.267,-5.74l-4.402,-7.185l-2.261,-8.23l0.17,-8.754l1.939,-6.72l4.057,-6.93l4.314,-4.503l6.496,-4.281c3.702,-1.851 4.921,-3.344 6.33,-4.687Zm201.995,-186.257l3.334,-0.336l11.166,3.24l2.977,2.277c3.546,-11.402 2.652,-21.766 -1.353,-30.1c-0.527,-1.095 -1.27,-2.233 -2.087,-3.324c-6.1,12.226 -10.628,21.355 -14.037,28.243Z"/></g></g></g><path d="M1451,377.332c-0,-0 87.415,277.93 75.017,476.936c-17.396,279.246 -106.422,453.513 -106.422,453.513c0,-0 35.965,-7.48 78.146,-20.143c37.407,-11.23 57.68,-32.544 57.68,-32.544c0,0 59.714,-220.056 42.557,-499.704c-20.25,-330.067 -177.781,-519.65 -177.781,-519.65l67.529,108.15l1.453,12.774l-38.179,20.668Z" style="fill:none;stroke:#382829;stroke-width:3.53px;"/><path d="M439.341,446.225c0,-0 -27.416,230.361 -14.697,429.367c17.846,279.246 109.179,453.513 109.179,453.513c-0,-0 -67.187,-30.444 -98.681,-54.59c-31.494,-24.145 -77.685,-58.788 -77.685,-58.788c-0,-0 -51.164,-177.408 -50.39,-420.969c0.961,-302.75 184.064,-530.707 214.995,-567.062c2.854,-3.355 4.412,-5.078 4.412,-5.078" style="fill:#1d4346;"/><clipPath id="_clip57"><path d="M439.341,446.225c0,-0 -27.416,230.361 -14.697,429.367c17.846,279.246 109.179,453.513 109.179,453.513c-0,-0 -67.187,-30.444 -98.681,-54.59c-31.494,-24.145 -77.685,-58.788 -77.685,-58.788c-0,-0 -51.164,-177.408 -50.39,-420.969c0.961,-302.75 184.064,-530.707 214.995,-567.062c2.854,-3.355 4.412,-5.078 4.412,-5.078"/></clipPath><g clip-path="url(#_clip57)"><g><g style="filter:url(#_Effect58);"><path d="M379.084,1226.57c0,-0 -70.626,-222.692 -50.849,-433.042c35.461,-377.177 198.477,-570.827 198.477,-570.827l-114.821,-60.692l-173.873,797.996l44.288,246.881l96.778,19.684Z" style="fill:#4d8a7a;stroke:#4e8b7b;stroke-width:3.53px;"/></g></g><g opacity="0.4"><g style="filter:url(#_Effect59);"><path d="M484.41,1214.45c3.171,2.333 5.78,5.221 7.759,8.458c10.342,7.561 24.606,18.516 41.573,35.483c1.944,1.943 26.511,24.881 26.511,24.881c0,0 -5.951,-2.817 -7.618,-3.234l12.144,5.939l10.613,10.441l7.227,12.608l2.055,11.835l-0.891,7.325l-3.195,8.153l-5.628,7.293l-6.768,5.004l-7.124,2.918l-8.434,1.3c-4.321,0.163 -11.326,-0.422 -21.655,-3.865c-14.162,-4.72 -41.155,-24.516 -47.138,-28.978c-59.845,-30.151 -55.305,-37.502 -105.992,-71.293c-25.944,-17.296 -44.367,-47.056 -56.624,-78.953c-14.893,-38.756 -20.251,-80.182 -25.104,-92.314c-11.649,-29.123 -14.867,-50.962 -16.519,-73.915c-2.067,-28.731 -1.155,-59.549 -17.277,-115.975c-4.474,-15.661 4.386,-32.027 19.946,-36.84c15.56,-4.814 32.114,3.689 37.265,19.141c7.619,22.857 6.279,22.932 11.85,45.392l9.474,28.422c31.158,93.474 42.589,109.932 47.337,118.033l5.795,13.758c7.701,30.802 71.006,117.891 89.779,138.308c0.192,0.208 0.427,0.455 0.639,0.675Zm45.721,120.443c3.314,2.256 6.563,2.904 7.976,3.257l-7.976,-3.257Z"/></g></g></g><path d="M439.341,446.225c0,-0 -27.416,230.361 -14.697,429.367c17.846,279.246 109.179,453.513 109.179,453.513c-0,-0 -67.187,-30.444 -98.681,-54.59c-31.494,-24.145 -77.685,-58.788 -77.685,-58.788c-0,-0 -51.164,-177.408 -50.39,-420.969c0.961,-302.75 184.064,-530.707 214.995,-567.062c2.854,-3.355 4.412,-5.078 4.412,-5.078" style="fill:none;stroke:#382829;stroke-width:3.53px;"/><g id="Fish-hair" serif:id="Fish hair"><g style="filter:url(#_Effect60);"><path d="M422.141,400.118l13.091,17.1c-0,0 -9.43,14.919 7.065,20.692c16.797,5.879 41.992,-8.398 41.992,-8.398c-0,-0 35.503,-29.051 51.23,-45.351c27.11,-28.101 41.876,-35.292 54.893,-36.692c12.129,-1.304 23.212,28.293 23.212,28.293c-0,0 19.829,-31.21 29.394,-47.031c16.842,-27.857 38.633,-72.226 38.633,-72.226c-0,0 -58.508,36.839 -82.304,47.031c-63.448,27.176 -69.707,-15.117 -69.707,-15.117c-0,0 -11.611,10.266 -26.875,16.797c-5.942,2.542 -18.476,5.879 -18.476,5.879c-0.739,1.231 2.427,-14.45 5.879,-24.356c2.303,-6.608 5.878,-20.156 5.878,-20.156l-49.55,79.785l-24.355,53.75Z" style="fill:#518b7c;stroke:#4e8b7b;stroke-width:3.53px;"/></g><g style="filter:url(#_Effect61);"><path d="M1506.21,399.143l-6.299,10.498c-0,-0 -11.14,33.069 -34.644,32.543c-42.981,-0.961 -67.187,-28.344 -76.635,-37.792c-9.448,-9.449 -53.539,-54.59 -77.685,-53.54c-24.145,1.05 -37.033,47.822 -37.033,47.822c2.299,6.514 -17.588,-31.481 -33.543,-65.618c-4.788,-10.243 -20.756,-74.586 -20.756,-74.586c-0,-0 59.878,73.27 128.075,77.685c37.191,2.407 45.492,-22.019 65.328,-24.045c15.646,-1.598 52.92,25.195 52.92,25.195c-0,0 -21.666,-41.043 -39.513,-62.039c-17.847,-20.995 -43.042,-57.738 -43.042,-57.738l47.241,44.091l46.191,66.137l16.797,35.693l12.598,35.694Z" style="fill:#4e8b7b;stroke:#4e8b7b;stroke-width:3.53px;"/></g><g style="filter:url(#_Effect62);"><path d="M787.945,260.376c0,0 3.353,0.287 8.507,0.37c4.329,0.07 8.877,-0.37 8.877,-0.37c-0,0 1.211,-3.241 4.068,-6.657c4.725,-5.651 9.904,-6.353 9.904,-6.353c-0,-0 8.578,4.545 14.508,10.421c4.677,4.635 15.928,17.229 24.041,17.014c7.035,-0.186 42.905,-12.575 48.823,-15.534c7.857,-3.929 55.48,-19.603 55.48,-19.603c-0,-0 -9.915,28.315 -12.153,34.397c-4.096,11.13 -12.258,48.083 -12.258,48.083c-0,0 -13.189,-9.777 -17.384,-12.945c-16.293,-12.306 -19.819,-10.212 -27.37,-10.726c-8.007,-0.545 -44.95,18.119 -59.842,30.105c-6.793,5.468 -49.192,35.811 -54,35.781c-5.016,-0.031 -30.681,0.199 -30.681,0.199c0,-0 7.237,-44.485 14.699,-60.907c4.746,-10.444 24.781,-43.275 24.781,-43.275Z" style="fill:#518b7c;stroke:#4e8b7b;stroke-width:3.53px;"/></g><g style="filter:url(#_Effect63);"><path d="M1022.79,332.234c0,-0 -0.473,-32.194 -1.893,-43.556c-1.141,-9.121 -6.155,-47.58 -6.155,-47.58c0,0 20.497,18.553 28.406,17.044c9.23,-1.762 19.647,-15.387 19.647,-15.387c0,0 11.05,17.455 17.044,36.454c5.909,18.73 5.681,49.474 5.681,49.474c-0,-0 -20.354,-24.619 -34.56,-25.092c-15.615,-0.52 -28.17,28.643 -28.17,28.643Z" style="fill:#518b7c;stroke:#4e8b7b;stroke-width:3.53px;"/></g><g style="filter:url(#_Effect64);"><path d="M1193.74,249.682l11.558,-0.462c-0,-0 7.239,42.459 7.86,52.706c1.849,30.514 8.322,74.436 8.322,74.436c-0,-0 -24.354,-54.099 -25.429,-61.491c-3.698,-25.428 -2.311,-65.189 -2.311,-65.189Z" style="fill:#518b7c;stroke:#4e8b7b;stroke-width:3.53px;"/></g><g style="filter:url(#_Effect65);"><path d="M725.443,357.945c0,-0 2.978,-26.969 11.54,-44.68c3.928,-8.125 23.08,-58.594 23.08,-59.179c-0,-0 -27.754,38.295 -38.762,55.036c-17.088,25.987 4.142,48.823 4.142,48.823Z" style="fill:#518b7c;stroke:#4e8b7b;stroke-width:3.53px;"/></g><g style="filter:url(#_Effect66);"><path d="M722.771,259.084c-0,-0 -10.954,32.367 -16.401,43.912c-5.339,11.319 -22.898,46.821 -22.898,46.821c0,0 11.758,-38.508 16.492,-50.439c3.36,-8.467 22.807,-40.294 22.807,-40.294Z" style="fill:#518b7c;stroke:#4e8b7b;stroke-width:3.53px;"/></g><g style="filter:url(#_Effect67);"><path d="M1104.71,272.76c0,-0 -2.367,13.611 -2.663,17.457c-0.296,3.847 3.847,15.979 3.847,15.979c-0,-0 5.03,-12.428 4.438,-15.979c-0.592,-3.55 -5.622,-17.457 -5.622,-17.457Z" style="fill:#518b7c;stroke:#4e8b7b;stroke-width:3.53px;"/></g><g style="filter:url(#_Effect68);"><path d="M1128.47,252.449c0,0 1.257,28.574 3.409,41.094c2.696,15.68 8.143,43.556 8.143,43.556c0.315,0.944 -3.513,-36.949 -4.734,-45.26c-0.88,-5.993 -6.818,-39.39 -6.818,-39.39Z" style="fill:#518b7c;stroke:#4e8b7b;stroke-width:3.53px;"/></g></g></g></g><defs><filter id="_Effect2" filterUnits="userSpaceOnUse" x="174.166" y="1174.22" width="632.169" height="798.99"><feGaussianBlur in="SourceGraphic" stdDeviation="3"/></filter><filter id="_Effect3" filterUnits="userSpaceOnUse" x="390.251" y="1860.18" width="35.1013" height="72.7264"><feGaussianBlur in="SourceGraphic" stdDeviation="1.85714"/></filter><filter id="_Effect4" filterUnits="userSpaceOnUse" x="199.526" y="1226.44" width="539.211" height="479.576"><feGaussianBlur in="SourceGraphic" stdDeviation="14.625"/></filter><filter id="_Effect5" filterUnits="userSpaceOnUse" x="615.891" y="1804.62" width="713.173" height="149.743"><feGaussianBlur in="SourceGraphic" stdDeviation="0.32381"/></filter><filter id="_Effect8" filterUnits="userSpaceOnUse" x="656.974" y="1583.89" width="626.256" height="289.295"><feGaussianBlur in="SourceGraphic" stdDeviation="14.2857"/></filter><filter id="_Effect10" filterUnits="userSpaceOnUse" x="1175.98" y="1180.87" width="527.861" height="800.951"><feGaussianBlur in="SourceGraphic" stdDeviation="3"/></filter><filter id="_Effect11" filterUnits="userSpaceOnUse" x="1173.14" y="1239.74" width="532.102" height="480.871"><feGaussianBlur in="SourceGraphic" stdDeviation="14.0139"/></filter><filter id="_Effect13" filterUnits="userSpaceOnUse" x="1454.19" y="1133.67" width="188.715" height="258.6"><feGaussianBlur in="SourceGraphic" stdDeviation="0.649306"/></filter><filter id="_Effect15" filterUnits="userSpaceOnUse" x="278.185" y="1155.23" width="252.481" height="248.497"><feGaussianBlur in="SourceGraphic" stdDeviation="0.61875"/></filter><filter id="_Effect19" filterUnits="userSpaceOnUse" x="852.657" y="1071.02" width="223.819" height="107.934"><feGaussianBlur in="SourceGraphic" stdDeviation="0.838095"/></filter><filter id="_Effect20" filterUnits="userSpaceOnUse" x="936.669" y="1130.4" width="47.5373" height="69.2664"><feGaussianBlur in="SourceGraphic" stdDeviation="1.47619"/></filter><filter id="_Effect21" filterUnits="userSpaceOnUse" x="672.726" y="765.089" width="619.341" height="115.37"><feGaussianBlur in="SourceGraphic" stdDeviation="1.66667"/></filter><filter id="_Effect22" filterUnits="userSpaceOnUse" x="688.219" y="658.584" width="558.406" height="94.1965"><feGaussianBlur in="SourceGraphic" stdDeviation="0.971429"/></filter><filter id="_Effect23" filterUnits="userSpaceOnUse" x="775.408" y="727.38" width="406.864" height="88.5282"><feGaussianBlur in="SourceGraphic" stdDeviation="0.780952"/></filter><filter id="_Effect24" filterUnits="userSpaceOnUse" x="905.084" y="1380.48" width="121.623" height="78.2795"><feGaussianBlur in="SourceGraphic" stdDeviation="0.209524"/></filter><filter id="_Effect26" filterUnits="userSpaceOnUse" x="872.346" y="767.136" width="712.724" height="318.471"><feGaussianBlur in="SourceGraphic" stdDeviation="0.971429"/></filter><filter id="_Effect28" filterUnits="userSpaceOnUse" x="949.1" y="663.956" width="352.212" height="352.058"><feGaussianBlur in="SourceGraphic" stdDeviation="3.57143"/></filter><filter id="_Effect29" filterUnits="userSpaceOnUse" x="1256.05" y="1038.48" width="352.212" height="352.058"><feGaussianBlur in="SourceGraphic" stdDeviation="3.57143"/></filter><filter id="_Effect30" filterUnits="userSpaceOnUse" x="905.372" y="1010.28" width="352.212" height="352.058"><feGaussianBlur in="SourceGraphic" stdDeviation="3.57143"/></filter><filter id="_Effect31" filterUnits="userSpaceOnUse" x="1291.25" y="697.022" width="352.212" height="352.058"><feGaussianBlur in="SourceGraphic" stdDeviation="3.57143"/></filter><filter id="_Effect32" filterUnits="userSpaceOnUse" x="936.009" y="719.064" width="611.261" height="349.398"><feGaussianBlur in="SourceGraphic" stdDeviation="0.8"/></filter><filter id="_Effect33" filterUnits="userSpaceOnUse" x="1163.36" y="1129.27" width="171.979" height="53.3462"><feGaussianBlur in="SourceGraphic" stdDeviation="0.552381"/></filter><filter id="_Effect35" filterUnits="userSpaceOnUse" x="363.476" y="776.184" width="690.636" height="300.331"><feGaussianBlur in="SourceGraphic" stdDeviation="0.971429"/></filter><filter id="_Effect37" filterUnits="userSpaceOnUse" x="680.124" y="688.579" width="342.681" height="319.305"><feGaussianBlur in="SourceGraphic" stdDeviation="3.57143"/></filter><filter id="_Effect38" filterUnits="userSpaceOnUse" x="322.982" y="1028.08" width="342.681" height="319.305"><feGaussianBlur in="SourceGraphic" stdDeviation="3.57143"/></filter><filter id="_Effect39" filterUnits="userSpaceOnUse" x="686.738" y="1017.06" width="342.681" height="319.305"><feGaussianBlur in="SourceGraphic" stdDeviation="3.57143"/></filter><filter id="_Effect40" filterUnits="userSpaceOnUse" x="314.163" y="688.579" width="342.681" height="319.305"><feGaussianBlur in="SourceGraphic" stdDeviation="3.57143"/></filter><filter id="_Effect41" filterUnits="userSpaceOnUse" x="334.139" y="731.015" width="658.284" height="404.511"><feGaussianBlur in="SourceGraphic" stdDeviation="0.8"/></filter><filter id="_Effect42" filterUnits="userSpaceOnUse" x="605.301" y="1124.77" width="179.9" height="40.9795"><feGaussianBlur in="SourceGraphic" stdDeviation="0.552381"/></filter><filter id="_Effect43" filterUnits="userSpaceOnUse" x="481.107" y="1156.54" width="968.276" height="116.68"><feGaussianBlur in="SourceGraphic" stdDeviation="2.80952"/></filter><filter id="_Effect44" filterUnits="userSpaceOnUse" x="882.626" y="1422.31" width="96.1009" height="115.761"><feGaussianBlur in="SourceGraphic" stdDeviation="4.71429"/></filter><filter id="_Effect45" filterUnits="userSpaceOnUse" x="347.38" y="138.324" width="1235.45" height="729.715"><feGaussianBlur in="SourceGraphic" stdDeviation="3"/></filter><filter id="_Effect46" filterUnits="userSpaceOnUse" x="553.957" y="1123.88" width="835.582" height="50.0492"><feGaussianBlur in="SourceGraphic" stdDeviation="0.359028"/></filter><filter id="_Effect47" filterUnits="userSpaceOnUse" x="15.153" y="17.9987" width="617.483" height="671.818"><feGaussianBlur in="SourceGraphic" stdDeviation="0.571429"/></filter><filter id="_Effect49" filterUnits="userSpaceOnUse" x="1366.91" y="7.80889" width="548.284" height="679.197"><feGaussianBlur in="SourceGraphic" stdDeviation="0.571429"/></filter><filter id="_Effect52" filterUnits="userSpaceOnUse" x="135.226" y="-19.7628" width="1473.92" height="790.685"><feGaussianBlur in="SourceGraphic" stdDeviation="3"/></filter><filter id="_Effect53" filterUnits="userSpaceOnUse" x="-118.707" y="310.295" width="2061.07" height="1059.76"><feGaussianBlur in="SourceGraphic" stdDeviation="3"/></filter><filter id="_Effect55" filterUnits="userSpaceOnUse" x="1363.68" y="177.561" width="441.262" height="1187.75"><feGaussianBlur in="SourceGraphic" stdDeviation="3"/></filter><filter id="_Effect56" filterUnits="userSpaceOnUse" x="1352.08" y="944.008" width="365.946" height="404.278"><feGaussianBlur in="SourceGraphic" stdDeviation="3"/></filter><filter id="_Effect58" filterUnits="userSpaceOnUse" x="218.255" y="142.241" width="328.22" height="1104.09"><feGaussianBlur in="SourceGraphic" stdDeviation="3"/></filter><filter id="_Effect59" filterUnits="userSpaceOnUse" x="230.767" y="818.976" width="384.314" height="564.311"><feGaussianBlur in="SourceGraphic" stdDeviation="3"/></filter><filter id="_Effect60" filterUnits="userSpaceOnUse" x="402.378" y="236.743" width="299.036" height="222.35"><feGaussianBlur in="SourceGraphic" stdDeviation="3"/></filter><filter id="_Effect61" filterUnits="userSpaceOnUse" x="1199.86" y="197.765" width="326.12" height="264.188"><feGaussianBlur in="SourceGraphic" stdDeviation="3"/></filter><filter id="_Effect62" filterUnits="userSpaceOnUse" x="728.702" y="219.901" width="253.213" height="164.42"><feGaussianBlur in="SourceGraphic" stdDeviation="3"/></filter><filter id="_Effect63" filterUnits="userSpaceOnUse" x="994.978" y="221.335" width="110.305" height="130.661"><feGaussianBlur in="SourceGraphic" stdDeviation="3"/></filter><filter id="_Effect64" filterUnits="userSpaceOnUse" x="1173.73" y="229.457" width="67.5204" height="166.668"><feGaussianBlur in="SourceGraphic" stdDeviation="3"/></filter><filter id="_Effect65" filterUnits="userSpaceOnUse" x="694.886" y="234.323" width="84.9394" height="143.384"><feGaussianBlur in="SourceGraphic" stdDeviation="3"/></filter><filter id="_Effect66" filterUnits="userSpaceOnUse" x="663.71" y="239.321" width="78.824" height="130.259"><feGaussianBlur in="SourceGraphic" stdDeviation="3"/></filter><filter id="_Effect67" filterUnits="userSpaceOnUse" x="1082.27" y="252.997" width="47.8741" height="72.9616"><feGaussianBlur in="SourceGraphic" stdDeviation="3"/></filter><filter id="_Effect68" filterUnits="userSpaceOnUse" x="1108.7" y="232.687" width="51.0956" height="124.192"><feGaussianBlur in="SourceGraphic" stdDeviation="3"/></filter></defs></svg>